<svg xmlns="http://www.w3.org/2000/svg" xmlns:xlink="http://www.w3.org/1999/xlink" width="500" zoomAndPan="magnify" viewBox="0 0 375 374.999991" height="500" preserveAspectRatio="xMidYMid meet" version="1.2"><defs><clipPath id="ae16a336ba"><path d="M 145 130.148438 L 183 130.148438 L 183 166 L 145 166 Z M 145 130.148438 "/></clipPath><filter x="0%" y="0%" width="100%" filterUnits="objectBoundingBox" id="d6f042d304" height="100%"><feColorMatrix values="0 0 0 0 1 0 0 0 0 1 0 0 0 0 1 0 0 0 1 0" type="matrix" in="SourceGraphic"/></filter><clipPath id="f753263f50"><path d="M 0.921875 0.148438 L 37 0.148438 L 37 35.359375 L 0.921875 35.359375 Z M 0.921875 0.148438 "/></clipPath><clipPath id="64771f34a3"><rect x="0" width="38" y="0" height="36"/></clipPath><clipPath id="ccb9555731"><path d="M 132.28125 167 L 196 167 L 196 283 L 132.28125 283 Z M 132.28125 167 "/></clipPath><clipPath id="f8b64b3ef7"><path d="M 0.480469 0.519531 L 63 0.519531 L 63 115.71875 L 0.480469 115.71875 Z M 0.480469 0.519531 "/></clipPath><clipPath id="4a8ccdf58f"><rect x="0" width="64" y="0" height="116"/></clipPath><clipPath id="920000cebb"><path d="M 0.199219 0.238281 L 28 0.238281 L 28 28.800781 L 0.199219 28.800781 Z M 0.199219 0.238281 "/></clipPath><clipPath id="914af06a34"><rect x="0" width="29" y="0" height="29"/></clipPath><clipPath id="4c985ae759"><path d="M 192 198 L 242.53125 198 L 242.53125 269 L 192 269 Z M 192 198 "/></clipPath><clipPath id="80d70f558e"><path d="M 0 0.480469 L 50.53125 0.480469 L 50.53125 70.558594 L 0 70.558594 Z M 0 0.480469 "/></clipPath><clipPath id="bb247e961d"><rect x="0" width="51" y="0" height="71"/></clipPath><clipPath id="fc4897174d"><path d="M 211 126 L 221 126 L 221 135 L 211 135 Z M 211 126 "/></clipPath><clipPath id="36863b10af"><path d="M 198.722656 124.074219 L 220.957031 127.523438 L 217.394531 150.496094 L 195.160156 147.046875 Z M 198.722656 124.074219 "/></clipPath><clipPath id="3d59009c3c"><path d="M 198.722656 124.074219 L 220.957031 127.523438 L 217.394531 150.496094 L 195.160156 147.046875 Z M 198.722656 124.074219 "/></clipPath><clipPath id="17f4869b1f"><path d="M 198.722656 124.074219 L 220.957031 127.523438 L 217.394531 150.496094 L 195.160156 147.046875 Z M 198.722656 124.074219 "/></clipPath><clipPath id="d70414c299"><path d="M 196 131 L 212 131 L 212 149 L 196 149 Z M 196 131 "/></clipPath><clipPath id="e1cca51547"><path d="M 198.722656 124.074219 L 220.957031 127.523438 L 217.394531 150.496094 L 195.160156 147.046875 Z M 198.722656 124.074219 "/></clipPath><clipPath id="78115f30c7"><path d="M 198.722656 124.074219 L 220.957031 127.523438 L 217.394531 150.496094 L 195.160156 147.046875 Z M 198.722656 124.074219 "/></clipPath><clipPath id="945c261bea"><path d="M 198.722656 124.074219 L 220.957031 127.523438 L 217.394531 150.496094 L 195.160156 147.046875 Z M 198.722656 124.074219 "/></clipPath><clipPath id="b41e6cacc1"><path d="M 211 138 L 219 138 L 219 146 L 211 146 Z M 211 138 "/></clipPath><clipPath id="24e9a5bc3d"><path d="M 198.722656 124.074219 L 220.957031 127.523438 L 217.394531 150.496094 L 195.160156 147.046875 Z M 198.722656 124.074219 "/></clipPath><clipPath id="6ae25f47f0"><path d="M 198.722656 124.074219 L 220.957031 127.523438 L 217.394531 150.496094 L 195.160156 147.046875 Z M 198.722656 124.074219 "/></clipPath><clipPath id="cba396da23"><path d="M 198.722656 124.074219 L 220.957031 127.523438 L 217.394531 150.496094 L 195.160156 147.046875 Z M 198.722656 124.074219 "/></clipPath><clipPath id="e7c3d92b3f"><path d="M 205 126 L 210 126 L 210 131 L 205 131 Z M 205 126 "/></clipPath><clipPath id="dc89e9aa6f"><path d="M 198.722656 124.074219 L 220.957031 127.523438 L 217.394531 150.496094 L 195.160156 147.046875 Z M 198.722656 124.074219 "/></clipPath><clipPath id="f300c2cd60"><path d="M 198.722656 124.074219 L 220.957031 127.523438 L 217.394531 150.496094 L 195.160156 147.046875 Z M 198.722656 124.074219 "/></clipPath><clipPath id="d4bd253fc4"><path d="M 198.722656 124.074219 L 220.957031 127.523438 L 217.394531 150.496094 L 195.160156 147.046875 Z M 198.722656 124.074219 "/></clipPath><clipPath id="c94272070d"><path d="M 107.136719 61.941406 L 115.257812 61.941406 L 115.257812 70.0625 L 107.136719 70.0625 Z M 107.136719 61.941406 "/></clipPath><clipPath id="6419fd3342"><path d="M 111.199219 61.941406 C 108.957031 61.941406 107.136719 63.761719 107.136719 66.003906 C 107.136719 68.246094 108.957031 70.0625 111.199219 70.0625 C 113.441406 70.0625 115.257812 68.246094 115.257812 66.003906 C 115.257812 63.761719 113.441406 61.941406 111.199219 61.941406 Z M 111.199219 61.941406 "/></clipPath><clipPath id="437a614e10"><path d="M 107.136719 300.949219 L 115.257812 300.949219 L 115.257812 309.066406 L 107.136719 309.066406 Z M 107.136719 300.949219 "/></clipPath><clipPath id="4e0445fb95"><path d="M 111.199219 300.949219 C 108.957031 300.949219 107.136719 302.765625 107.136719 305.007812 C 107.136719 307.25 108.957031 309.066406 111.199219 309.066406 C 113.441406 309.066406 115.257812 307.25 115.257812 305.007812 C 115.257812 302.765625 113.441406 300.949219 111.199219 300.949219 Z M 111.199219 300.949219 "/></clipPath><clipPath id="932a74ed03"><path d="M 269.113281 61.941406 L 278.136719 61.941406 L 278.136719 70.964844 L 269.113281 70.964844 Z M 269.113281 61.941406 "/></clipPath><clipPath id="e5f0305324"><path d="M 273.625 61.941406 C 271.132812 61.941406 269.113281 63.960938 269.113281 66.453125 C 269.113281 68.945312 271.132812 70.964844 273.625 70.964844 C 276.117188 70.964844 278.136719 68.945312 278.136719 66.453125 C 278.136719 63.960938 276.117188 61.941406 273.625 61.941406 Z M 273.625 61.941406 "/></clipPath><clipPath id="3528771e08"><path d="M 269.113281 301.851562 L 278.136719 301.851562 L 278.136719 310.875 L 269.113281 310.875 Z M 269.113281 301.851562 "/></clipPath><clipPath id="36fb2ea923"><path d="M 273.625 301.851562 C 271.132812 301.851562 269.113281 303.871094 269.113281 306.363281 C 269.113281 308.855469 271.132812 310.875 273.625 310.875 C 276.117188 310.875 278.136719 308.855469 278.136719 306.363281 C 278.136719 303.871094 276.117188 301.851562 273.625 301.851562 Z M 273.625 301.851562 "/></clipPath></defs><g id="153241345d"><rect x="0" width="375" y="0" height="374.999991" style="fill:#ffffff;fill-opacity:1;stroke:none;"/><rect x="0" width="375" y="0" height="374.999991" style="fill:#000000;fill-opacity:1;stroke:none;"/><g clip-rule="nonzero" clip-path="url(#ae16a336ba)"><g mask="url(#373005f1d9)" transform="matrix(1,0,0,1,145,130)"><g clip-path="url(#64771f34a3)"><g clip-rule="nonzero" clip-path="url(#f753263f50)"><path style=" stroke:none;fill-rule:evenodd;fill:#ffffff;fill-opacity:1;" d="M 19.542969 0.308594 C 26.128906 0.15625 31.046875 2.921875 34.300781 8.59375 C 35.796875 11.382812 36.675781 14.347656 36.933594 17.5 C 37.167969 20.492188 36.589844 23.308594 35.199219 25.957031 C 32.695312 30.269531 29.027344 33.097656 24.191406 34.441406 C 20.382812 35.523438 16.574219 35.523438 12.769531 34.441406 C 8.371094 32.921875 5.078125 30.109375 2.882812 26.011719 C 1.816406 24.054688 1.179688 21.964844 0.980469 19.742188 C 0.910156 16.796875 1.582031 14.035156 2.996094 11.453125 C 6.734375 5.140625 12.25 1.425781 19.542969 0.308594 Z M 19.542969 0.308594 "/></g></g><mask id="373005f1d9"><g filter="url(#d6f042d304)"><rect x="0" width="375" y="0" height="374.999991" style="fill:#000000;fill-opacity:0.98;stroke:none;"/></g></mask></g></g><g clip-rule="nonzero" clip-path="url(#ccb9555731)"><g mask="url(#2a6db8d18f)" transform="matrix(1,0,0,1,132,167)"><g clip-path="url(#4a8ccdf58f)"><g clip-rule="nonzero" clip-path="url(#f8b64b3ef7)"><path style=" stroke:none;fill-rule:evenodd;fill:#ffffff;fill-opacity:1;" d="M 28.230469 0.664062 C 36.652344 0.472656 43.382812 3.71875 48.421875 10.40625 C 50.648438 13.628906 52.402344 17.101562 53.6875 20.824219 C 54.914062 24.140625 55.847656 27.535156 56.488281 31.015625 C 56.84375 33.210938 56.9375 35.410156 56.765625 37.625 C 56.488281 39.105469 55.808594 40.367188 54.722656 41.40625 C 52.769531 42.9375 50.769531 42.996094 48.730469 41.574219 C 47.257812 40.300781 46.484375 38.683594 46.40625 36.730469 C 46.398438 35.589844 46.359375 34.449219 46.292969 33.3125 C 45.414062 28.429688 43.882812 23.761719 41.703125 19.3125 C 40.539062 17.011719 38.941406 15.058594 36.914062 13.460938 C 33.808594 11.230469 30.390625 10.558594 26.664062 11.445312 C 22.320312 12.691406 18.726562 15.050781 15.882812 18.527344 C 15.523438 19.054688 15.1875 19.597656 14.875 20.152344 C 13.902344 22.042969 13.007812 23.964844 12.1875 25.921875 C 10.292969 30.820312 9.621094 35.878906 10.171875 41.097656 C 10.628906 44.148438 11.597656 47.023438 13.082031 49.722656 C 14.957031 53.003906 17.066406 56.121094 19.410156 59.074219 C 19.953125 59.691406 20.492188 60.308594 21.035156 60.925781 C 23.753906 63.753906 26.582031 66.472656 29.519531 69.074219 C 34.386719 73.035156 39.316406 76.917969 44.304688 80.722656 C 47.972656 83.738281 51.324219 87.070312 54.359375 90.71875 C 57.234375 94.359375 59.496094 98.375 61.136719 102.761719 C 61.84375 104.871094 62.441406 107.019531 62.925781 109.199219 C 63.269531 111.796875 62.308594 113.726562 60.042969 114.996094 C 57.542969 115.933594 55.425781 115.402344 53.6875 113.402344 C 53.300781 112.863281 53.011719 112.273438 52.820312 111.636719 C 52.285156 109.191406 51.546875 106.8125 50.605469 104.496094 C 48.792969 100.554688 46.367188 97.046875 43.324219 93.96875 C 41.640625 92.25 39.878906 90.617188 38.03125 89.066406 C 34.289062 86.214844 30.574219 83.320312 26.886719 80.386719 C 21.472656 76.148438 16.460938 71.453125 11.851562 66.300781 C 9.394531 63.3125 7.171875 60.15625 5.1875 56.835938 C 3.140625 53.101562 1.796875 49.125 1.152344 44.90625 C 0.277344 39.363281 0.390625 33.835938 1.488281 28.328125 C 2.148438 24.855469 3.082031 21.457031 4.289062 18.136719 C 5.851562 14.242188 8.214844 10.929688 11.375 8.195312 C 14.410156 5.546875 17.824219 3.511719 21.625 2.089844 C 23.777344 1.351562 25.980469 0.875 28.230469 0.664062 Z M 28.230469 0.664062 "/></g></g><mask id="2a6db8d18f"><g filter="url(#d6f042d304)"><rect x="0" width="375" y="0" height="374.999991" style="fill:#000000;fill-opacity:0.965;stroke:none;"/></g></mask></g></g><g mask="url(#356f8a4634)" transform="matrix(1,0,0,1,211,168)"><g clip-path="url(#914af06a34)"><g clip-rule="nonzero" clip-path="url(#920000cebb)"><path style=" stroke:none;fill-rule:evenodd;fill:#ffffff;fill-opacity:1;" d="M 12.910156 0.390625 C 15.765625 0.207031 18.378906 0.90625 20.75 2.492188 C 21.796875 3.3125 22.839844 4.132812 23.886719 4.953125 C 26.332031 7.417969 27.667969 10.394531 27.890625 13.886719 C 28.046875 19.488281 25.757812 23.757812 21.03125 26.683594 C 17.3125 28.722656 13.429688 29.09375 9.382812 27.804688 C 7.800781 27.222656 6.382812 26.378906 5.125 25.285156 C 1.40625 22.023438 -0.117188 17.925781 0.5625 12.992188 C 1.339844 8.398438 3.664062 4.84375 7.535156 2.324219 C 9.203125 1.3125 10.992188 0.667969 12.910156 0.390625 Z M 12.910156 0.390625 "/></g></g><mask id="356f8a4634"><g filter="url(#d6f042d304)"><rect x="0" width="375" y="0" height="374.999991" style="fill:#000000;fill-opacity:0.974;stroke:none;"/></g></mask></g><g clip-rule="nonzero" clip-path="url(#4c985ae759)"><g mask="url(#4291f64601)" transform="matrix(1,0,0,1,192,198)"><g clip-path="url(#bb247e961d)"><g clip-rule="nonzero" clip-path="url(#80d70f558e)"><path style=" stroke:none;fill-rule:evenodd;fill:#ffffff;fill-opacity:1;" d="M 30.511719 0.746094 C 35.390625 0.558594 39.703125 2.003906 43.449219 5.085938 C 48.078125 9.046875 50.410156 14.097656 50.449219 20.234375 C 50.359375 23.835938 49.566406 27.269531 48.066406 30.539062 C 46.613281 33.65625 44.726562 36.476562 42.410156 38.996094 C 41.453125 40.011719 40.472656 41.011719 39.472656 41.992188 C 38.441406 42.929688 37.398438 43.84375 36.335938 44.738281 C 32.707031 47.691406 29.050781 50.605469 25.359375 53.472656 C 23.691406 54.878906 22.132812 56.402344 20.679688 58.039062 C 19.535156 59.527344 18.734375 61.1875 18.273438 63.023438 C 17.984375 64.320312 17.667969 65.605469 17.320312 66.886719 C 16.066406 69.875 13.855469 71.023438 10.683594 70.332031 C 8.449219 69.382812 7.289062 67.683594 7.210938 65.234375 C 7.257812 64.5625 7.359375 63.902344 7.519531 63.246094 C 8.34375 60.066406 9.519531 57.023438 11.046875 54.117188 C 12.132812 52.304688 13.421875 50.644531 14.914062 49.132812 C 16.535156 47.398438 18.261719 45.785156 20.09375 44.289062 C 23.777344 41.519531 27.378906 38.644531 30.902344 35.664062 C 32.820312 34.023438 34.566406 32.222656 36.136719 30.261719 C 38.191406 27.65625 39.460938 24.707031 39.945312 21.410156 C 40.347656 17.085938 38.660156 13.90625 34.878906 11.863281 C 33.761719 11.386719 32.59375 11.152344 31.378906 11.164062 C 27.6875 11.367188 24.203125 12.332031 20.933594 14.046875 C 19.894531 14.648438 18.90625 15.320312 17.964844 16.0625 C 14.824219 18.773438 12.164062 21.882812 9.984375 25.386719 C 9.390625 26.523438 8.773438 27.640625 8.136719 28.746094 C 7.605469 29.648438 6.90625 30.386719 6.035156 30.960938 C 3.542969 31.949219 1.722656 31.230469 0.574219 28.804688 C 0.0429688 27.265625 -0.0703125 25.699219 0.238281 24.097656 C 0.636719 22.015625 1.367188 20.054688 2.421875 18.21875 C 4.292969 15.207031 6.523438 12.472656 9.117188 10.015625 C 13.042969 6.183594 17.675781 3.53125 23.003906 2.0625 C 25.46875 1.363281 27.972656 0.921875 30.511719 0.746094 Z M 30.511719 0.746094 "/></g></g><mask id="4291f64601"><g filter="url(#d6f042d304)"><rect x="0" width="375" y="0" height="374.999991" style="fill:#000000;fill-opacity:0.962;stroke:none;"/></g></mask></g></g><g clip-rule="nonzero" clip-path="url(#fc4897174d)"><g clip-rule="nonzero" clip-path="url(#36863b10af)"><g clip-rule="nonzero" clip-path="url(#3d59009c3c)"><g clip-rule="nonzero" clip-path="url(#17f4869b1f)"><path style=" stroke:none;fill-rule:nonzero;fill:#000000;fill-opacity:1;" d="M 214.457031 126.714844 C 215.6875 126.707031 216.644531 127.695312 217.097656 128.785156 C 218.160156 128.808594 219.273438 129.3125 219.765625 130.316406 C 220.34375 131.40625 219.964844 132.871094 218.96875 133.582031 C 217.351562 134.703125 215.199219 134.539062 213.40625 134.058594 C 212.496094 132.632812 211.71875 130.9375 211.878906 129.183594 C 211.984375 127.859375 213.125 126.667969 214.457031 126.714844 Z M 214.457031 126.714844 "/></g></g></g></g><g clip-rule="nonzero" clip-path="url(#d70414c299)"><g clip-rule="nonzero" clip-path="url(#e1cca51547)"><g clip-rule="nonzero" clip-path="url(#78115f30c7)"><g clip-rule="nonzero" clip-path="url(#945c261bea)"><path style=" stroke:none;fill-rule:nonzero;fill:#000000;fill-opacity:1;" d="M 203.050781 133.160156 C 203.273438 132 204.699219 131.324219 205.710938 131.902344 C 207.265625 132.695312 208.804688 133.515625 210.351562 134.320312 C 211.109375 134.660156 211.589844 135.535156 211.433594 136.378906 C 210.957031 139.484375 210.480469 142.59375 209.984375 145.699219 C 209.699219 147.679688 207.351562 148.941406 205.59375 148.046875 C 203.769531 147.285156 203.160156 144.667969 204.445312 143.128906 C 205.5625 141.617188 207.894531 141.535156 209.171875 142.855469 C 209.386719 141.320312 209.644531 139.789062 209.875 138.257812 C 207.914062 137.234375 205.953125 136.207031 203.992188 135.179688 C 203.617188 137.503906 203.292969 139.835938 202.890625 142.15625 C 202.519531 144.125 200.117188 145.261719 198.402344 144.292969 C 196.65625 143.457031 196.132812 140.894531 197.414062 139.40625 C 198.535156 137.921875 200.839844 137.859375 202.109375 139.164062 C 202.421875 137.164062 202.695312 135.15625 203.050781 133.160156 Z M 203.050781 133.160156 "/></g></g></g></g><g clip-rule="nonzero" clip-path="url(#b41e6cacc1)"><g clip-rule="nonzero" clip-path="url(#24e9a5bc3d)"><g clip-rule="nonzero" clip-path="url(#6ae25f47f0)"><g clip-rule="nonzero" clip-path="url(#cba396da23)"><path style=" stroke:none;fill-rule:nonzero;fill:#000000;fill-opacity:1;" d="M 214.84375 139.097656 C 214.9375 138.410156 215.792969 138.019531 216.367188 138.378906 C 217.335938 138.886719 218.109375 139.832031 218.363281 140.925781 C 218.429688 141.515625 217.539062 141.882812 217.246094 141.339844 C 216.949219 140.695312 216.613281 140.070312 216.050781 139.621094 C 215.742188 141.097656 215.613281 142.605469 215.304688 144.082031 C 215.027344 145.253906 213.535156 145.855469 212.546875 145.210938 C 211.523438 144.644531 211.300781 143.085938 212.128906 142.242188 C 212.695312 141.578125 213.652344 141.488281 214.414062 141.816406 C 214.5625 140.910156 214.667969 140 214.84375 139.097656 Z M 214.84375 139.097656 "/></g></g></g></g><g clip-rule="nonzero" clip-path="url(#e7c3d92b3f)"><g clip-rule="nonzero" clip-path="url(#dc89e9aa6f)"><g clip-rule="nonzero" clip-path="url(#f300c2cd60)"><g clip-rule="nonzero" clip-path="url(#d4bd253fc4)"><path style=" stroke:none;fill-rule:nonzero;fill:#000000;fill-opacity:1;" d="M 207.472656 126.945312 C 207.523438 126.5625 207.996094 126.347656 208.3125 126.546875 C 208.851562 126.828125 209.28125 127.347656 209.417969 127.953125 C 209.457031 128.28125 208.964844 128.484375 208.800781 128.183594 C 208.636719 127.828125 208.449219 127.480469 208.140625 127.234375 C 207.96875 128.050781 207.898438 128.886719 207.726562 129.703125 C 207.574219 130.351562 206.746094 130.683594 206.199219 130.328125 C 205.632812 130.015625 205.511719 129.148438 205.96875 128.683594 C 206.28125 128.316406 206.8125 128.265625 207.234375 128.445312 C 207.3125 127.945312 207.375 127.441406 207.472656 126.945312 Z M 207.472656 126.945312 "/></g></g></g></g><g style="fill:#ffffff;fill-opacity:1;"><g transform="translate(152.200581, 66.642666)"><path style="stroke:none" d="M -1.03125 -15.734375 C -1.269531 -16.992188 -1.328125 -17.832031 -1.203125 -18.25 C -1.085938 -18.664062 -0.800781 -18.914062 -0.34375 -19 L 14.421875 -21.75 C 14.878906 -21.832031 15.242188 -21.703125 15.515625 -21.359375 C 15.796875 -21.015625 16.054688 -20.210938 16.296875 -18.953125 C 16.523438 -17.703125 16.570312 -16.867188 16.4375 -16.453125 C 16.300781 -16.035156 16.003906 -15.785156 15.546875 -15.703125 L 0.78125 -12.953125 C 0.320312 -12.867188 -0.0351562 -13 -0.296875 -13.34375 C -0.554688 -13.6875 -0.800781 -14.484375 -1.03125 -15.734375 Z M -1.03125 -15.734375 "/></g></g><g style="fill:#ffffff;fill-opacity:1;"><g transform="translate(178.795623, 62.368919)"><path style="stroke:none" d="M 2.625 -1.4375 L 1.265625 -35.28125 C 1.242188 -35.9375 1.503906 -36.421875 2.046875 -36.734375 C 2.597656 -37.046875 3.804688 -37.238281 5.671875 -37.3125 C 7.515625 -37.382812 8.710938 -37.285156 9.265625 -37.015625 C 9.816406 -36.742188 10.101562 -36.28125 10.125 -35.625 L 11.484375 -1.78125 C 11.503906 -1.125 11.25 -0.640625 10.71875 -0.328125 C 10.1875 -0.0234375 9 0.160156 7.15625 0.234375 C 5.289062 0.304688 4.070312 0.210938 3.5 -0.046875 C 2.9375 -0.316406 2.644531 -0.78125 2.625 -1.4375 Z M 2.625 -1.4375 "/></g></g><g style="fill:#ffffff;fill-opacity:1;"><g transform="translate(198.223252, 61.105953)"><path style="stroke:none" d="M 0.625 -0.71875 C 0.65625 -0.914062 0.703125 -1.070312 0.765625 -1.1875 L 16.640625 -33.046875 C 16.867188 -33.554688 17.15625 -33.925781 17.5 -34.15625 C 17.84375 -34.382812 18.425781 -34.492188 19.25 -34.484375 C 20.070312 -34.472656 21.265625 -34.351562 22.828125 -34.125 C 24.441406 -33.894531 25.628906 -33.664062 26.390625 -33.4375 C 27.160156 -33.21875 27.6875 -32.945312 27.96875 -32.625 C 28.25 -32.3125 28.410156 -31.878906 28.453125 -31.328125 L 34.625 3.734375 C 34.65625 3.828125 34.648438 3.988281 34.609375 4.21875 C 34.546875 4.675781 34.210938 4.96875 33.609375 5.09375 C 33.003906 5.21875 31.859375 5.15625 30.171875 4.90625 C 28.179688 4.613281 26.890625 4.28125 26.296875 3.90625 C 25.710938 3.53125 25.375 2.960938 25.28125 2.203125 L 24.375 -4.828125 L 13.015625 -6.484375 L 10.125 0 C 9.84375 0.707031 9.375 1.160156 8.71875 1.359375 C 8.0625 1.554688 6.738281 1.507812 4.75 1.21875 C 2.988281 0.957031 1.84375 0.679688 1.3125 0.390625 C 0.789062 0.109375 0.5625 -0.257812 0.625 -0.71875 Z M 15.890625 -13 L 23.46875 -11.890625 L 21.703125 -25.921875 Z M 15.890625 -13 "/></g></g><g style="fill:#ffffff;fill-opacity:1;"><g transform="translate(133.405345, 346.137325)"><path style="stroke:none" d="M 5.6875 -14.703125 C 6.007812 -15.941406 6.3125 -16.722656 6.59375 -17.046875 C 6.875 -17.367188 7.238281 -17.472656 7.6875 -17.359375 L 13.09375 -15.96875 L 14.484375 -21.359375 C 14.597656 -21.816406 14.863281 -22.09375 15.28125 -22.1875 C 15.695312 -22.28125 16.523438 -22.171875 17.765625 -21.859375 C 18.992188 -21.535156 19.769531 -21.234375 20.09375 -20.953125 C 20.425781 -20.671875 20.535156 -20.300781 20.421875 -19.84375 L 19.03125 -14.453125 L 24.375 -13.078125 C 24.820312 -12.960938 25.097656 -12.691406 25.203125 -12.265625 C 25.316406 -11.847656 25.210938 -11.019531 24.890625 -9.78125 C 24.578125 -8.539062 24.269531 -7.757812 23.96875 -7.4375 C 23.664062 -7.125 23.289062 -7.023438 22.84375 -7.140625 L 17.5 -8.515625 L 16.125 -3.109375 C 16.007812 -2.660156 15.738281 -2.382812 15.3125 -2.28125 C 14.882812 -2.1875 14.054688 -2.300781 12.828125 -2.625 C 11.585938 -2.9375 10.804688 -3.234375 10.484375 -3.515625 C 10.171875 -3.804688 10.070312 -4.175781 10.1875 -4.625 L 11.5625 -10.03125 L 6.15625 -11.421875 C 5.707031 -11.535156 5.4375 -11.800781 5.34375 -12.21875 C 5.257812 -12.632812 5.375 -13.460938 5.6875 -14.703125 Z M 5.6875 -14.703125 "/></g></g><g style="fill:#ffffff;fill-opacity:1;"><g transform="translate(166.957627, 354.196786)"><path style="stroke:none" d="M 7.203125 -36.796875 C 9.128906 -36.710938 10.378906 -36.539062 10.953125 -36.28125 C 11.523438 -36.03125 11.929688 -35.570312 12.171875 -34.90625 L 18.40625 -18.515625 L 26.140625 -34.328125 C 26.398438 -34.941406 26.851562 -35.359375 27.5 -35.578125 C 28.144531 -35.804688 29.410156 -35.882812 31.296875 -35.8125 C 33.421875 -35.71875 34.789062 -35.5625 35.40625 -35.34375 C 36.019531 -35.125 36.316406 -34.800781 36.296875 -34.375 C 36.285156 -34.144531 36.238281 -33.976562 36.15625 -33.875 L 22.59375 -10.265625 L 22.1875 -0.375 C 22.164062 0.28125 21.863281 0.742188 21.28125 1.015625 C 20.707031 1.285156 19.492188 1.378906 17.640625 1.296875 C 15.785156 1.222656 14.582031 1.03125 14.03125 0.71875 C 13.488281 0.40625 13.226562 -0.078125 13.25 -0.734375 L 13.65625 -10.625 L 2.09375 -35.265625 C 2.007812 -35.390625 1.972656 -35.566406 1.984375 -35.796875 C 2.003906 -36.222656 2.335938 -36.519531 2.984375 -36.6875 C 3.628906 -36.851562 5.035156 -36.890625 7.203125 -36.796875 Z M 7.203125 -36.796875 "/></g></g><g style="fill:#ffffff;fill-opacity:1;"><g transform="translate(213.908494, 354.831289)"><path style="stroke:none" d="M 6.734375 -20.109375 C 7.648438 -15.835938 8.972656 -12.988281 10.703125 -11.5625 C 12.429688 -10.132812 14.617188 -9.703125 17.265625 -10.265625 C 19.941406 -10.835938 21.78125 -12.109375 22.78125 -14.078125 C 23.789062 -16.054688 23.832031 -19.21875 22.90625 -23.5625 C 21.976562 -27.914062 20.648438 -30.796875 18.921875 -32.203125 C 17.191406 -33.617188 14.988281 -34.039062 12.3125 -33.46875 C 9.664062 -32.90625 7.84375 -31.609375 6.84375 -29.578125 C 5.851562 -27.546875 5.816406 -24.390625 6.734375 -20.109375 Z M -1.953125 -18.25 C -3.328125 -24.675781 -2.910156 -29.648438 -0.703125 -33.171875 C 1.492188 -36.691406 5.367188 -39.046875 10.921875 -40.234375 C 16.484375 -41.421875 20.972656 -40.851562 24.390625 -38.53125 C 27.804688 -36.207031 30.203125 -31.832031 31.578125 -25.40625 C 32.953125 -18.945312 32.550781 -13.972656 30.375 -10.484375 C 28.195312 -7.003906 24.328125 -4.671875 18.765625 -3.484375 C 13.210938 -2.296875 8.710938 -2.84375 5.265625 -5.125 C 1.828125 -7.414062 -0.578125 -11.789062 -1.953125 -18.25 Z M -1.953125 -18.25 "/></g></g><g clip-rule="nonzero" clip-path="url(#c94272070d)"><g clip-rule="nonzero" clip-path="url(#6419fd3342)"><path style=" stroke:none;fill-rule:nonzero;fill:#ffffff;fill-opacity:1;" d="M 107.136719 61.941406 L 115.257812 61.941406 L 115.257812 70.0625 L 107.136719 70.0625 Z M 107.136719 61.941406 "/></g></g><g style="fill:#ffffff;fill-opacity:1;"><g transform="translate(99.235248, 293.283921)"><path style="stroke:none" d="M -21.046875 -2.828125 L -11.046875 -12.015625 L -10.109375 -11 L -18.109375 -3.640625 L -7.78125 -5.90625 L -7.328125 -5.390625 L -10.390625 4.671875 L -2.4375 -2.640625 L -1.5 -1.640625 L -11.5 7.546875 L -12.296875 6.6875 L -8.890625 -4.46875 L -20.25 -1.953125 Z M -21.046875 -2.828125 "/></g></g><g style="fill:#ffffff;fill-opacity:1;"><g transform="translate(86.263193, 278.864845)"><path style="stroke:none" d="M -7.921875 -8.84375 L -6.921875 -9.5625 L -1.296875 -1.796875 L -12.296875 6.171875 L -17.765625 -1.375 L -16.765625 -2.109375 L -12.140625 4.28125 L -8.234375 1.453125 L -12.34375 -4.234375 L -11.34375 -4.953125 L -7.234375 0.734375 L -3.140625 -2.234375 Z M -7.921875 -8.84375 "/></g></g><g style="fill:#ffffff;fill-opacity:1;"><g transform="translate(78.081456, 267.606925)"><path style="stroke:none" d="M -18.515625 -5.046875 L -6.71875 -11.78125 L -6.140625 -10.75 L -11.375 2.3125 L -1.8125 -3.15625 L -1.09375 -1.921875 L -12.890625 4.8125 L -13.484375 3.796875 L -8.234375 -9.28125 L -17.8125 -3.8125 Z M -18.515625 -5.046875 "/></g></g><g style="fill:#ffffff;fill-opacity:1;"><g transform="translate(69.862391, 253.138144)"><path style="stroke:none" d="M -3.078125 -7.5625 C -2.554688 -6.3125 -2.351562 -5.066406 -2.46875 -3.828125 C -2.59375 -2.597656 -3.019531 -1.492188 -3.75 -0.515625 C -4.476562 0.453125 -5.445312 1.191406 -6.65625 1.703125 C -7.851562 2.210938 -9.050781 2.382812 -10.25 2.21875 C -11.457031 2.0625 -12.550781 1.597656 -13.53125 0.828125 C -14.519531 0.0664062 -15.273438 -0.9375 -15.796875 -2.1875 C -16.316406 -3.425781 -16.515625 -4.65625 -16.390625 -5.875 C -16.265625 -7.09375 -15.832031 -8.191406 -15.09375 -9.171875 C -14.363281 -10.160156 -13.398438 -10.910156 -12.203125 -11.421875 C -10.992188 -11.929688 -9.785156 -12.101562 -8.578125 -11.9375 C -7.367188 -11.769531 -6.28125 -11.304688 -5.3125 -10.546875 C -4.34375 -9.796875 -3.597656 -8.800781 -3.078125 -7.5625 Z M -4.25 -7.0625 C -4.664062 -8.050781 -5.265625 -8.847656 -6.046875 -9.453125 C -6.835938 -10.066406 -7.722656 -10.429688 -8.703125 -10.546875 C -9.691406 -10.660156 -10.675781 -10.515625 -11.65625 -10.109375 C -12.632812 -9.691406 -13.421875 -9.085938 -14.015625 -8.296875 C -14.617188 -7.515625 -14.972656 -6.628906 -15.078125 -5.640625 C -15.179688 -4.660156 -15.023438 -3.675781 -14.609375 -2.6875 C -14.191406 -1.695312 -13.59375 -0.890625 -12.8125 -0.265625 C -12.03125 0.347656 -11.144531 0.71875 -10.15625 0.84375 C -9.164062 0.96875 -8.179688 0.820312 -7.203125 0.40625 C -6.222656 0 -5.4375 -0.597656 -4.84375 -1.390625 C -4.25 -2.191406 -3.894531 -3.085938 -3.78125 -4.078125 C -3.675781 -5.078125 -3.832031 -6.070312 -4.25 -7.0625 Z M -4.25 -7.0625 "/></g></g><g style="fill:#ffffff;fill-opacity:1;"><g transform="translate(63.312186, 237.21753)"><path style="stroke:none" d="M -1.609375 -5.734375 C -1.316406 -4.765625 -1.191406 -3.789062 -1.234375 -2.8125 C -1.285156 -1.832031 -1.488281 -1.023438 -1.84375 -0.390625 L -3.046875 -0.609375 C -2.722656 -1.234375 -2.535156 -1.972656 -2.484375 -2.828125 C -2.429688 -3.691406 -2.53125 -4.539062 -2.78125 -5.375 C -3.132812 -6.539062 -3.609375 -7.351562 -4.203125 -7.8125 C -4.804688 -8.269531 -5.453125 -8.394531 -6.140625 -8.1875 C -6.660156 -8.03125 -7.023438 -7.742188 -7.234375 -7.328125 C -7.453125 -6.910156 -7.578125 -6.445312 -7.609375 -5.9375 C -7.640625 -5.4375 -7.628906 -4.75 -7.578125 -3.875 C -7.523438 -2.8125 -7.523438 -1.957031 -7.578125 -1.3125 C -7.628906 -0.664062 -7.828125 -0.0625 -8.171875 0.5 C -8.523438 1.0625 -9.101562 1.460938 -9.90625 1.703125 C -10.5625 1.898438 -11.207031 1.90625 -11.84375 1.71875 C -12.488281 1.53125 -13.082031 1.128906 -13.625 0.515625 C -14.164062 -0.0976562 -14.597656 -0.941406 -14.921875 -2.015625 C -15.140625 -2.753906 -15.253906 -3.507812 -15.265625 -4.28125 C -15.285156 -5.0625 -15.195312 -5.757812 -15 -6.375 L -13.765625 -6.25 C -13.953125 -5.601562 -14.039062 -4.941406 -14.03125 -4.265625 C -14.03125 -3.597656 -13.941406 -2.96875 -13.765625 -2.375 C -13.421875 -1.238281 -12.9375 -0.445312 -12.3125 0 C -11.695312 0.445312 -11.046875 0.566406 -10.359375 0.359375 C -9.835938 0.203125 -9.460938 -0.078125 -9.234375 -0.484375 C -9.003906 -0.898438 -8.878906 -1.367188 -8.859375 -1.890625 C -8.847656 -2.421875 -8.867188 -3.117188 -8.921875 -3.984375 C -8.960938 -5.003906 -8.957031 -5.84375 -8.90625 -6.5 C -8.851562 -7.164062 -8.65625 -7.769531 -8.3125 -8.3125 C -7.976562 -8.863281 -7.414062 -9.257812 -6.625 -9.5 C -5.96875 -9.695312 -5.316406 -9.703125 -4.671875 -9.515625 C -4.035156 -9.335938 -3.445312 -8.925781 -2.90625 -8.28125 C -2.363281 -7.644531 -1.929688 -6.796875 -1.609375 -5.734375 Z M -1.609375 -5.734375 "/></g></g><g style="fill:#ffffff;fill-opacity:1;"><g transform="translate(59.666756, 224.630796)"><path style="stroke:none" d=""/></g></g><g style="fill:#ffffff;fill-opacity:1;"><g transform="translate(58.154157, 218.590571)"><path style="stroke:none" d="M -5.1875 -10.0625 L -4.046875 -2.578125 L -0.234375 -1.515625 L 0 -0.03125 L -14.359375 -4.125 L -14.578125 -5.53125 L -2.078125 -13.71875 L -1.859375 -12.21875 Z M -6.28125 -9.375 L -13 -5.0625 L -5.296875 -2.921875 Z M -6.28125 -9.375 "/></g></g><g style="fill:#ffffff;fill-opacity:1;"><g transform="translate(56.021295, 203.833601)"><path style="stroke:none" d="M -13.6875 -1.484375 L -13.765625 -2.90625 L -1.4375 -3.578125 L -1.84375 -11.171875 L -0.609375 -11.234375 L -0.125 -2.21875 Z M -13.6875 -1.484375 "/></g></g><g style="fill:#ffffff;fill-opacity:1;"><g transform="translate(55.305328, 191.4416)"><path style="stroke:none" d="M -6.265625 -12.078125 L -6.203125 -13.453125 L -1.015625 -13.21875 C -0.492188 -12.550781 -0.101562 -11.78125 0.15625 -10.90625 C 0.414062 -10.03125 0.523438 -9.113281 0.484375 -8.15625 C 0.421875 -6.800781 0.0664062 -5.59375 -0.578125 -4.53125 C -1.222656 -3.476562 -2.082031 -2.664062 -3.15625 -2.09375 C -4.238281 -1.519531 -5.4375 -1.265625 -6.75 -1.328125 C -8.039062 -1.378906 -9.203125 -1.738281 -10.234375 -2.40625 C -11.265625 -3.082031 -12.050781 -3.972656 -12.59375 -5.078125 C -13.132812 -6.191406 -13.375 -7.429688 -13.3125 -8.796875 C -13.269531 -9.828125 -13.0625 -10.769531 -12.6875 -11.625 C -12.320312 -12.476562 -11.800781 -13.1875 -11.125 -13.75 L -10.25 -12.8125 C -11.363281 -11.789062 -11.957031 -10.453125 -12.03125 -8.796875 C -12.082031 -7.703125 -11.882812 -6.703125 -11.4375 -5.796875 C -11 -4.890625 -10.359375 -4.160156 -9.515625 -3.609375 C -8.679688 -3.066406 -7.738281 -2.773438 -6.6875 -2.734375 C -5.625 -2.679688 -4.65625 -2.890625 -3.78125 -3.359375 C -2.90625 -3.828125 -2.203125 -4.488281 -1.671875 -5.34375 C -1.140625 -6.195312 -0.847656 -7.171875 -0.796875 -8.265625 C -0.734375 -9.660156 -1.03125 -10.859375 -1.6875 -11.859375 Z M -6.265625 -12.078125 "/></g></g><g style="fill:#ffffff;fill-opacity:1;"><g transform="translate(56.041318, 175.5775)"><path style="stroke:none" d="M 1.421875 -8.03125 C 1.203125 -6.695312 0.707031 -5.539062 -0.0625 -4.5625 C -0.832031 -3.582031 -1.78125 -2.875 -2.90625 -2.4375 C -4.039062 -2 -5.253906 -1.882812 -6.546875 -2.09375 C -7.835938 -2.300781 -8.945312 -2.796875 -9.875 -3.578125 C -10.8125 -4.359375 -11.488281 -5.332031 -11.90625 -6.5 C -12.332031 -7.664062 -12.4375 -8.914062 -12.21875 -10.25 C -12 -11.570312 -11.507812 -12.71875 -10.75 -13.6875 C -9.988281 -14.664062 -9.035156 -15.375 -7.890625 -15.8125 C -6.753906 -16.25 -5.539062 -16.363281 -4.25 -16.15625 C -2.957031 -15.945312 -1.84375 -15.453125 -0.90625 -14.671875 C 0.03125 -13.890625 0.707031 -12.914062 1.125 -11.75 C 1.539062 -10.59375 1.640625 -9.351562 1.421875 -8.03125 Z M 0.15625 -8.234375 C 0.332031 -9.296875 0.25 -10.289062 -0.09375 -11.21875 C -0.4375 -12.15625 -0.988281 -12.9375 -1.75 -13.5625 C -2.519531 -14.1875 -3.425781 -14.582031 -4.46875 -14.75 C -5.519531 -14.914062 -6.507812 -14.828125 -7.4375 -14.484375 C -8.375 -14.140625 -9.148438 -13.578125 -9.765625 -12.796875 C -10.378906 -12.023438 -10.773438 -11.109375 -10.953125 -10.046875 C -11.128906 -8.992188 -11.046875 -7.992188 -10.703125 -7.046875 C -10.367188 -6.109375 -9.816406 -5.320312 -9.046875 -4.6875 C -8.273438 -4.050781 -7.363281 -3.648438 -6.3125 -3.484375 C -5.269531 -3.316406 -4.285156 -3.410156 -3.359375 -3.765625 C -2.429688 -4.117188 -1.65625 -4.6875 -1.03125 -5.46875 C -0.414062 -6.257812 -0.0195312 -7.179688 0.15625 -8.234375 Z M 0.15625 -8.234375 "/></g></g><g style="fill:#ffffff;fill-opacity:1;"><g transform="translate(58.92047, 158.64535)"><path style="stroke:none" d="M 3.109375 -11.046875 L -1.921875 -9.265625 C -1.992188 -8.910156 -2.078125 -8.550781 -2.171875 -8.1875 L -3.171875 -4.671875 L 0.984375 -3.5 L 0.609375 -2.140625 L -12.453125 -5.828125 L -11.078125 -10.703125 C -10.609375 -12.367188 -9.84375 -13.5625 -8.78125 -14.28125 C -7.71875 -15.007812 -6.492188 -15.175781 -5.109375 -14.78125 C -4.078125 -14.488281 -3.285156 -13.984375 -2.734375 -13.265625 C -2.179688 -12.554688 -1.882812 -11.679688 -1.84375 -10.640625 L 3.546875 -12.578125 Z M -3.359375 -8.5 C -2.992188 -9.789062 -3 -10.859375 -3.375 -11.703125 C -3.75 -12.546875 -4.457031 -13.113281 -5.5 -13.40625 C -6.5625 -13.707031 -7.46875 -13.59375 -8.21875 -13.0625 C -8.976562 -12.539062 -9.539062 -11.632812 -9.90625 -10.34375 L -10.890625 -6.84375 L -4.34375 -5 Z M -3.359375 -8.5 "/></g></g><g style="fill:#ffffff;fill-opacity:1;"><g transform="translate(63.222722, 144.132753)"><path style="stroke:none" d="M -11.96875 -6.765625 L -11.484375 -8.109375 L 1.25 -3.421875 L 0.765625 -2.078125 Z M -11.96875 -6.765625 "/></g></g><g style="fill:#ffffff;fill-opacity:1;"><g transform="translate(65.608398, 137.508901)"><path style="stroke:none" d="M -9.28125 -9.484375 L -11.234375 -5.125 L -12.359375 -5.625 L -7.875 -15.640625 L -6.75 -15.140625 L -8.703125 -10.78125 L 2.5625 -5.734375 L 1.984375 -4.4375 Z M -9.28125 -9.484375 "/></g></g><g style="fill:#ffffff;fill-opacity:1;"><g transform="translate(70.395458, 126.435556)"><path style="stroke:none" d="M -3.421875 -20.96875 L 8.28125 -14.078125 L 7.578125 -12.875 L -1.796875 -18.390625 L 3.375 -9.15625 L 3.03125 -8.5625 L -7.484375 -8.578125 L 1.828125 -3.09375 L 1.125 -1.90625 L -10.578125 -8.796875 L -9.984375 -9.8125 L 1.6875 -9.796875 L -4.03125 -19.9375 Z M -3.421875 -20.96875 "/></g></g><g style="fill:#ffffff;fill-opacity:1;"><g transform="translate(80.305733, 109.833538)"><path style="stroke:none" d="M 5.09375 -6.375 C 4.257812 -5.3125 3.269531 -4.53125 2.125 -4.03125 C 0.988281 -3.539062 -0.175781 -3.367188 -1.375 -3.515625 C -2.582031 -3.671875 -3.707031 -4.15625 -4.75 -4.96875 C -5.769531 -5.757812 -6.503906 -6.722656 -6.953125 -7.859375 C -7.410156 -8.992188 -7.546875 -10.175781 -7.359375 -11.40625 C -7.171875 -12.632812 -6.660156 -13.78125 -5.828125 -14.84375 C -5.003906 -15.90625 -4.023438 -16.679688 -2.890625 -17.171875 C -1.765625 -17.660156 -0.59375 -17.820312 0.625 -17.65625 C 1.84375 -17.5 2.960938 -17.023438 3.984375 -16.234375 C 5.023438 -15.421875 5.769531 -14.445312 6.21875 -13.3125 C 6.664062 -12.1875 6.796875 -11.015625 6.609375 -9.796875 C 6.421875 -8.578125 5.914062 -7.4375 5.09375 -6.375 Z M 4.078125 -7.15625 C 4.734375 -8.007812 5.132812 -8.925781 5.28125 -9.90625 C 5.425781 -10.882812 5.3125 -11.832031 4.9375 -12.75 C 4.5625 -13.664062 3.953125 -14.453125 3.109375 -15.109375 C 2.273438 -15.753906 1.363281 -16.144531 0.375 -16.28125 C -0.601562 -16.414062 -1.546875 -16.289062 -2.453125 -15.90625 C -3.367188 -15.519531 -4.15625 -14.898438 -4.8125 -14.046875 C -5.46875 -13.203125 -5.875 -12.285156 -6.03125 -11.296875 C -6.1875 -10.304688 -6.078125 -9.347656 -5.703125 -8.421875 C -5.328125 -7.503906 -4.722656 -6.722656 -3.890625 -6.078125 C -3.046875 -5.421875 -2.128906 -5.023438 -1.140625 -4.890625 C -0.160156 -4.765625 0.785156 -4.898438 1.703125 -5.296875 C 2.628906 -5.691406 3.421875 -6.3125 4.078125 -7.15625 Z M 4.078125 -7.15625 "/></g></g><g style="fill:#ffffff;fill-opacity:1;"><g transform="translate(90.99096, 96.335323)"><path style="stroke:none" d="M 4.203125 -4.21875 C 3.503906 -3.488281 2.71875 -2.898438 1.84375 -2.453125 C 0.96875 -2.015625 0.164062 -1.796875 -0.5625 -1.796875 L -0.96875 -2.96875 C -0.269531 -2.976562 0.46875 -3.171875 1.25 -3.546875 C 2.039062 -3.929688 2.734375 -4.4375 3.328125 -5.0625 C 4.171875 -5.9375 4.644531 -6.742188 4.75 -7.484375 C 4.851562 -8.234375 4.644531 -8.859375 4.125 -9.359375 C 3.726562 -9.734375 3.300781 -9.910156 2.84375 -9.890625 C 2.382812 -9.878906 1.925781 -9.765625 1.46875 -9.546875 C 1.007812 -9.335938 0.410156 -8.988281 -0.328125 -8.5 C -1.234375 -7.9375 -1.976562 -7.519531 -2.5625 -7.25 C -3.15625 -6.976562 -3.78125 -6.859375 -4.4375 -6.890625 C -5.09375 -6.921875 -5.722656 -7.222656 -6.328125 -7.796875 C -6.816406 -8.273438 -7.140625 -8.835938 -7.296875 -9.484375 C -7.453125 -10.140625 -7.390625 -10.851562 -7.109375 -11.625 C -6.835938 -12.40625 -6.316406 -13.195312 -5.546875 -14 C -5.003906 -14.5625 -4.398438 -15.035156 -3.734375 -15.421875 C -3.066406 -15.816406 -2.410156 -16.078125 -1.765625 -16.203125 L -1.28125 -15.0625 C -1.9375 -14.914062 -2.554688 -14.675781 -3.140625 -14.34375 C -3.722656 -14.007812 -4.234375 -13.613281 -4.671875 -13.15625 C -5.492188 -12.300781 -5.945312 -11.492188 -6.03125 -10.734375 C -6.113281 -9.984375 -5.894531 -9.359375 -5.375 -8.859375 C -4.988281 -8.484375 -4.554688 -8.296875 -4.078125 -8.296875 C -3.609375 -8.304688 -3.140625 -8.429688 -2.671875 -8.671875 C -2.210938 -8.910156 -1.613281 -9.265625 -0.875 -9.734375 C -0.0078125 -10.273438 0.71875 -10.679688 1.3125 -10.953125 C 1.914062 -11.234375 2.539062 -11.359375 3.1875 -11.328125 C 3.832031 -11.296875 4.453125 -10.992188 5.046875 -10.421875 C 5.546875 -9.953125 5.867188 -9.390625 6.015625 -8.734375 C 6.171875 -8.085938 6.097656 -7.375 5.796875 -6.59375 C 5.503906 -5.8125 4.972656 -5.019531 4.203125 -4.21875 Z M 4.203125 -4.21875 "/></g></g><g clip-rule="nonzero" clip-path="url(#437a614e10)"><g clip-rule="nonzero" clip-path="url(#4e0445fb95)"><path style=" stroke:none;fill-rule:nonzero;fill:#ffffff;fill-opacity:1;" d="M 107.136719 300.949219 L 115.257812 300.949219 L 115.257812 309.066406 L 107.136719 309.066406 Z M 107.136719 300.949219 "/></g></g><g clip-rule="nonzero" clip-path="url(#932a74ed03)"><g clip-rule="nonzero" clip-path="url(#e5f0305324)"><path style=" stroke:none;fill-rule:nonzero;fill:#ffffff;fill-opacity:1;" d="M 269.113281 61.941406 L 278.136719 61.941406 L 278.136719 70.964844 L 269.113281 70.964844 Z M 269.113281 61.941406 "/></g></g><g clip-rule="nonzero" clip-path="url(#3528771e08)"><g clip-rule="nonzero" clip-path="url(#36fb2ea923)"><path style=" stroke:none;fill-rule:nonzero;fill:#ffffff;fill-opacity:1;" d="M 269.113281 301.851562 L 278.136719 301.851562 L 278.136719 310.875 L 269.113281 310.875 Z M 269.113281 301.851562 "/></g></g><g style="fill:#ffffff;fill-opacity:1;"><g transform="translate(288.409768, 97.339215)"><path style="stroke:none" d="M 21.21875 6.25 L 9.453125 14.125 L 8.65625 12.9375 L 18.078125 6.640625 L 7.0625 7.328125 L 6.671875 6.734375 L 11.4375 -3.15625 L 2.078125 3.109375 L 1.28125 1.921875 L 13.046875 -5.953125 L 13.734375 -4.9375 L 8.4375 6.015625 L 20.53125 5.234375 Z M 21.21875 6.25 "/></g></g><g style="fill:#ffffff;fill-opacity:1;"><g transform="translate(299.472971, 114.240872)"><path style="stroke:none" d="M 8.4375 8.28125 L 4.859375 1.234375 L 0.71875 1.421875 L 0.015625 0.046875 L 15.578125 -0.59375 L 16.234375 0.71875 L 6.53125 12.890625 L 5.828125 11.484375 Z M 9.265625 7.21875 L 14.5 0.765625 L 6.1875 1.15625 Z M 19.828125 -0.265625 L 20.703125 1.4375 L 16.984375 -0.359375 L 16.34375 -1.609375 Z M 19.828125 -0.265625 "/></g></g><g style="fill:#ffffff;fill-opacity:1;"><g transform="translate(306.405592, 128.140508)"><path style="stroke:none" d="M 2.140625 5.828125 C 1.753906 4.847656 1.539062 3.84375 1.5 2.8125 C 1.46875 1.789062 1.617188 0.941406 1.953125 0.265625 L 3.234375 0.375 C 2.953125 1.050781 2.816406 1.84375 2.828125 2.75 C 2.835938 3.65625 3.003906 4.523438 3.328125 5.359375 C 3.785156 6.546875 4.34375 7.347656 5 7.765625 C 5.664062 8.191406 6.34375 8.269531 7.03125 8 C 7.5625 7.789062 7.921875 7.46875 8.109375 7.03125 C 8.304688 6.59375 8.398438 6.101562 8.390625 5.5625 C 8.378906 5.03125 8.3125 4.3125 8.1875 3.40625 C 8.050781 2.3125 7.984375 1.425781 7.984375 0.75 C 7.992188 0.0703125 8.148438 -0.566406 8.453125 -1.171875 C 8.765625 -1.785156 9.332031 -2.25 10.15625 -2.5625 C 10.820312 -2.820312 11.492188 -2.882812 12.171875 -2.75 C 12.847656 -2.613281 13.492188 -2.242188 14.109375 -1.640625 C 14.734375 -1.035156 15.253906 -0.1875 15.671875 0.90625 C 15.960938 1.644531 16.144531 2.414062 16.21875 3.21875 C 16.289062 4.019531 16.242188 4.757812 16.078125 5.4375 L 14.78125 5.390625 C 14.945312 4.703125 14.992188 4.003906 14.921875 3.296875 C 14.859375 2.597656 14.707031 1.953125 14.46875 1.359375 C 14.019531 0.203125 13.457031 -0.578125 12.78125 -0.984375 C 12.113281 -1.398438 11.429688 -1.472656 10.734375 -1.203125 C 10.191406 -0.992188 9.820312 -0.664062 9.625 -0.21875 C 9.4375 0.21875 9.347656 0.710938 9.359375 1.265625 C 9.378906 1.816406 9.453125 2.539062 9.578125 3.4375 C 9.710938 4.5 9.78125 5.375 9.78125 6.0625 C 9.78125 6.75 9.625 7.390625 9.3125 7.984375 C 9.007812 8.578125 8.457031 9.03125 7.65625 9.34375 C 6.988281 9.601562 6.3125 9.660156 5.625 9.515625 C 4.9375 9.367188 4.289062 8.988281 3.6875 8.375 C 3.082031 7.757812 2.566406 6.910156 2.140625 5.828125 Z M 2.140625 5.828125 "/></g></g><g style="fill:#ffffff;fill-opacity:1;"><g transform="translate(311.206824, 140.9288)"><path style="stroke:none" d=""/></g></g><g style="fill:#ffffff;fill-opacity:1;"><g transform="translate(313.247518, 147.110055)"><path style="stroke:none" d="M 4.09375 11.6875 L 2.828125 11.984375 L 0.53125 2.25 L 14.3125 -1 L 16.53125 8.453125 L 15.265625 8.75 L 13.390625 0.75 L 8.5 1.90625 L 10.171875 9.03125 L 8.921875 9.328125 L 7.25 2.203125 L 2.140625 3.40625 Z M 4.09375 11.6875 "/></g></g><g style="fill:#ffffff;fill-opacity:1;"><g transform="translate(316.672071, 161.154281)"><path style="stroke:none" d="M 16 15.28125 L 1.9375 16.890625 L 1.765625 15.46875 L 13.015625 14.171875 L 2.921875 9.75 L 2.84375 9.03125 L 11.609375 2.421875 L 0.421875 3.703125 L 0.265625 2.296875 L 14.328125 0.6875 L 14.46875 1.90625 L 4.734375 9.203125 L 15.859375 14.046875 Z M 16 15.28125 "/></g></g><g style="fill:#ffffff;fill-opacity:1;"><g transform="translate(318.837871, 181.192598)"><path style="stroke:none" d="M -0.25 8.484375 C -0.226562 7.085938 0.101562 5.820312 0.75 4.6875 C 1.394531 3.5625 2.265625 2.6875 3.359375 2.0625 C 4.460938 1.4375 5.695312 1.128906 7.0625 1.140625 C 8.425781 1.160156 9.644531 1.5 10.71875 2.15625 C 11.800781 2.8125 12.648438 3.710938 13.265625 4.859375 C 13.878906 6.015625 14.175781 7.289062 14.15625 8.6875 C 14.132812 10.09375 13.804688 11.351562 13.171875 12.46875 C 12.535156 13.582031 11.664062 14.453125 10.5625 15.078125 C 9.457031 15.710938 8.222656 16.019531 6.859375 16 C 5.492188 15.988281 4.265625 15.648438 3.171875 14.984375 C 2.078125 14.328125 1.226562 13.429688 0.625 12.296875 C 0.0195312 11.160156 -0.269531 9.890625 -0.25 8.484375 Z M 1.09375 8.5 C 1.082031 9.625 1.320312 10.640625 1.8125 11.546875 C 2.300781 12.453125 2.988281 13.171875 3.875 13.703125 C 4.769531 14.234375 5.769531 14.503906 6.875 14.515625 C 7.976562 14.535156 8.976562 14.289062 9.875 13.78125 C 10.78125 13.28125 11.492188 12.582031 12.015625 11.6875 C 12.535156 10.800781 12.800781 9.796875 12.8125 8.671875 C 12.832031 7.554688 12.59375 6.535156 12.09375 5.609375 C 11.601562 4.691406 10.914062 3.96875 10.03125 3.4375 C 9.144531 2.914062 8.148438 2.644531 7.046875 2.625 C 5.941406 2.613281 4.9375 2.859375 4.03125 3.359375 C 3.125 3.859375 2.410156 4.5625 1.890625 5.46875 C 1.378906 6.375 1.113281 7.382812 1.09375 8.5 Z M 1.09375 8.5 "/></g></g><g style="fill:#ffffff;fill-opacity:1;"><g transform="translate(318.46328, 199.094043)"><path style="stroke:none" d="M -1.1875 8.375 C -1.007812 6.976562 -0.546875 5.757812 0.203125 4.71875 C 0.960938 3.675781 1.925781 2.90625 3.09375 2.40625 C 4.269531 1.914062 5.535156 1.753906 6.890625 1.921875 C 8.242188 2.097656 9.425781 2.570312 10.4375 3.34375 C 11.445312 4.125 12.1875 5.117188 12.65625 6.328125 C 13.125 7.535156 13.269531 8.832031 13.09375 10.21875 C 12.96875 11.257812 12.671875 12.195312 12.203125 13.03125 C 11.734375 13.863281 11.132812 14.546875 10.40625 15.078125 L 9.5625 14.015625 C 10.8125 13.066406 11.539062 11.757812 11.75 10.09375 C 11.894531 8.96875 11.769531 7.914062 11.375 6.9375 C 10.988281 5.96875 10.382812 5.171875 9.5625 4.546875 C 8.75 3.929688 7.789062 3.550781 6.6875 3.40625 C 5.59375 3.269531 4.570312 3.398438 3.625 3.796875 C 2.6875 4.191406 1.90625 4.8125 1.28125 5.65625 C 0.65625 6.5 0.269531 7.484375 0.125 8.609375 C -0.09375 10.285156 0.289062 11.738281 1.28125 12.96875 L 0.234375 13.78125 C -0.359375 13.082031 -0.773438 12.265625 -1.015625 11.328125 C -1.265625 10.398438 -1.320312 9.414062 -1.1875 8.375 Z M -1.1875 8.375 "/></g></g><g style="fill:#ffffff;fill-opacity:1;"><g transform="translate(316.269489, 214.639776)"><path style="stroke:none" d="M 13.390625 5.140625 L 13.09375 6.59375 L -0.765625 3.71875 L -0.46875 2.265625 Z M 13.390625 5.140625 "/></g></g><g style="fill:#ffffff;fill-opacity:1;"><g transform="translate(314.980817, 221.760236)"><path style="stroke:none" d="M -2.546875 8.09375 C -2.148438 6.757812 -1.484375 5.632812 -0.546875 4.71875 C 0.378906 3.800781 1.457031 3.191406 2.6875 2.890625 C 3.914062 2.585938 5.179688 2.632812 6.484375 3.03125 C 7.796875 3.414062 8.878906 4.070312 9.734375 5 C 10.597656 5.925781 11.164062 7.023438 11.4375 8.296875 C 11.71875 9.566406 11.660156 10.867188 11.265625 12.203125 C 10.859375 13.554688 10.195312 14.679688 9.28125 15.578125 C 8.363281 16.484375 7.285156 17.085938 6.046875 17.390625 C 4.816406 17.691406 3.546875 17.648438 2.234375 17.265625 C 0.929688 16.867188 -0.15625 16.207031 -1.03125 15.28125 C -1.90625 14.351562 -2.476562 13.257812 -2.75 12 C -3.019531 10.75 -2.953125 9.445312 -2.546875 8.09375 Z M -1.25 8.46875 C -1.570312 9.550781 -1.617188 10.597656 -1.390625 11.609375 C -1.171875 12.617188 -0.707031 13.492188 0 14.234375 C 0.71875 14.984375 1.601562 15.519531 2.65625 15.84375 C 3.71875 16.15625 4.75 16.191406 5.75 15.953125 C 6.75 15.722656 7.617188 15.25 8.359375 14.53125 C 9.109375 13.8125 9.644531 12.910156 9.96875 11.828125 C 10.28125 10.765625 10.320312 9.722656 10.09375 8.703125 C 9.875 7.679688 9.410156 6.796875 8.703125 6.046875 C 8.003906 5.296875 7.125 4.765625 6.0625 4.453125 C 5.007812 4.128906 3.976562 4.085938 2.96875 4.328125 C 1.957031 4.566406 1.078125 5.050781 0.328125 5.78125 C -0.410156 6.507812 -0.9375 7.40625 -1.25 8.46875 Z M -1.25 8.46875 "/></g></g><g style="fill:#ffffff;fill-opacity:1;"><g transform="translate(309.803745, 238.863965)"><path style="stroke:none" d="M 7.359375 18.59375 L -5.625 12.96875 L -5.125 11.84375 L 9.015625 8.046875 L -1.515625 3.484375 L -0.921875 2.125 L 12.0625 7.75 L 11.578125 8.859375 L -2.578125 12.671875 L 7.953125 17.234375 Z M 7.359375 18.59375 "/></g></g><g style="fill:#ffffff;fill-opacity:1;"><g transform="translate(302.761684, 254.786249)"><path style="stroke:none" d="M -4.953125 11.34375 L -6.078125 10.703125 L -1.140625 2.015625 L 11.171875 9.015625 L 6.375 17.453125 L 5.25 16.8125 L 9.3125 9.65625 L 4.9375 7.171875 L 1.3125 13.546875 L 0.1875 12.90625 L 3.8125 6.53125 L -0.75 3.9375 Z M -4.953125 11.34375 "/></g></g><g style="fill:#ffffff;fill-opacity:1;"><g transform="translate(295.488797, 267.426976)"><path style="stroke:none" d="M -3.671875 5 C -3.066406 4.132812 -2.347656 3.40625 -1.515625 2.8125 C -0.679688 2.226562 0.109375 1.878906 0.859375 1.765625 L 1.484375 2.90625 C 0.765625 3.039062 0.03125 3.363281 -0.71875 3.875 C -1.46875 4.382812 -2.097656 5.003906 -2.609375 5.734375 C -3.335938 6.773438 -3.695312 7.691406 -3.6875 8.484375 C -3.675781 9.273438 -3.363281 9.878906 -2.75 10.296875 C -2.28125 10.628906 -1.8125 10.75 -1.34375 10.65625 C -0.875 10.570312 -0.421875 10.375 0.015625 10.0625 C 0.453125 9.757812 1.015625 9.304688 1.703125 8.703125 C 2.535156 7.984375 3.234375 7.4375 3.796875 7.0625 C 4.359375 6.6875 4.976562 6.460938 5.65625 6.390625 C 6.34375 6.316406 7.039062 6.53125 7.75 7.03125 C 8.34375 7.4375 8.769531 7.960938 9.03125 8.609375 C 9.300781 9.253906 9.351562 10 9.1875 10.84375 C 9.03125 11.6875 8.617188 12.582031 7.953125 13.53125 C 7.484375 14.1875 6.9375 14.765625 6.3125 15.265625 C 5.6875 15.773438 5.050781 16.148438 4.40625 16.390625 L 3.71875 15.296875 C 4.382812 15.035156 4.988281 14.6875 5.53125 14.25 C 6.070312 13.8125 6.53125 13.328125 6.90625 12.796875 C 7.613281 11.785156 7.953125 10.882812 7.921875 10.09375 C 7.890625 9.300781 7.566406 8.691406 6.953125 8.265625 C 6.484375 7.929688 6.007812 7.804688 5.53125 7.890625 C 5.050781 7.972656 4.585938 8.175781 4.140625 8.5 C 3.691406 8.820312 3.132812 9.28125 2.46875 9.875 C 1.644531 10.570312 0.945312 11.113281 0.375 11.5 C -0.1875 11.882812 -0.800781 12.113281 -1.46875 12.1875 C -2.132812 12.257812 -2.820312 12.046875 -3.53125 11.546875 C -4.113281 11.140625 -4.535156 10.609375 -4.796875 9.953125 C -5.066406 9.296875 -5.113281 8.546875 -4.9375 7.703125 C -4.757812 6.859375 -4.335938 5.957031 -3.671875 5 Z M -3.671875 5 "/></g></g></g></svg>