<?xml version="1.0" standalone="no"?>
<!DOCTYPE svg PUBLIC "-//W3C//DTD SVG 20010904//EN"
 "http://www.w3.org/TR/2001/REC-SVG-20010904/DTD/svg10.dtd">
<svg version="1.0" xmlns="http://www.w3.org/2000/svg"
 width="500.000000pt" height="500.000000pt" viewBox="0 0 500.000000 500.000000"
 preserveAspectRatio="xMidYMid meet">

<g transform="translate(0.000000,500.000000) scale(0.100000,-0.100000)"
fill="#000000" stroke="none">
<path d="M2414 4645 c-4 -9 -3 -118 2 -243 l9 -227 50 0 50 0 3 75 c1 41 -1
149 -5 240 l-8 165 -48 3 c-36 2 -49 -1 -53 -13z"/>
<path d="M2768 4426 c-60 -119 -108 -222 -108 -230 0 -15 30 -26 76 -26 28 0
34 5 54 51 l22 51 71 -7 c40 -3 76 -10 80 -15 5 -4 11 -27 14 -51 3 -24 10
-49 15 -56 10 -13 95 -29 104 -20 9 9 -78 481 -91 495 -7 8 -39 16 -71 19
l-59 5 -107 -216z m187 -49 l6 -39 -53 7 c-29 4 -54 8 -56 10 -1 1 16 42 39
91 l42 89 8 -60 c5 -33 11 -77 14 -98z"/>
<path d="M2170 4390 c-19 -4 -61 -13 -92 -20 -54 -11 -58 -13 -58 -40 0 -16 4
-32 10 -35 10 -6 191 24 209 34 15 9 -2 66 -20 68 -8 0 -30 -2 -49 -7z"/>
<path d="M1446 4154 c-21 -21 -20 -47 2 -67 37 -34 82 -15 82 33 0 14 -5 31
-12 38 -17 17 -54 15 -72 -4z"/>
<path d="M3603 4144 c-15 -24 -15 -29 -2 -53 16 -29 61 -40 85 -20 17 14 19
70 2 87 -22 22 -66 14 -85 -14z"/>
<path d="M1141 3896 c-25 -27 -25 -63 0 -79 12 -7 28 -4 62 13 79 40 108 -3
40 -60 l-38 -32 33 17 c53 26 68 86 26 102 -9 3 -37 -4 -62 -16 -40 -20 -47
-21 -60 -7 -20 20 -3 62 30 76 15 5 17 9 7 9 -8 1 -26 -10 -38 -23z"/>
<path d="M3942 3728 c-41 -27 -71 -52 -69 -55 3 -3 33 14 66 36 34 23 61 39
61 36 0 -3 -13 -32 -30 -65 -16 -33 -30 -62 -30 -65 0 -3 21 -4 48 -3 43 1 44
2 10 5 -21 2 -38 9 -38 14 0 5 14 37 31 70 16 33 29 64 27 69 -2 4 -36 -15
-76 -42z"/>
<path d="M1033 3755 c-37 -16 -53 -42 -53 -88 0 -73 91 -107 145 -52 68 67 -5
178 -92 140z m66 -10 c72 -37 45 -145 -36 -145 -82 0 -104 113 -29 146 39 17
32 17 65 -1z"/>
<path d="M4068 3623 c21 -8 14 -17 -43 -53 -30 -19 -55 -39 -55 -43 0 -4 34
15 75 43 41 28 75 53 75 55 0 3 -15 5 -32 4 -18 0 -27 -3 -20 -6z"/>
<path d="M890 3584 c0 -4 16 -35 35 -70 19 -34 35 -65 35 -68 0 -3 -36 -6 -80
-8 l-80 -3 71 -43 c86 -51 104 -50 22 1 l-58 36 73 1 74 0 -37 65 c-20 36 -33
65 -30 65 4 0 33 -16 66 -35 32 -19 59 -31 59 -27 0 4 -12 14 -28 23 -15 8
-48 28 -74 43 -27 15 -48 25 -48 20z"/>
<path d="M4230 3480 c8 -5 20 -10 25 -10 6 0 3 5 -5 10 -8 5 -19 10 -25 10 -5
0 -3 -5 5 -10z"/>
<path d="M4015 3470 c-17 -7 -15 -9 12 -9 29 -1 36 -7 57 -49 23 -45 24 -50 8
-65 -8 -9 -13 -19 -11 -22 6 -5 106 116 115 140 5 13 -7 15 -77 14 -46 0 -93
-4 -104 -9z m145 -40 c-17 -22 -35 -42 -40 -45 -11 -7 -52 70 -43 79 4 3 31 6
61 6 l54 0 -32 -40z"/>
<path d="M746 3314 c-14 -31 -26 -61 -25 -68 0 -6 5 1 11 17 12 34 21 34 102
-3 36 -16 66 -26 66 -21 0 4 -31 21 -70 36 -38 15 -70 32 -70 36 0 4 4 19 10
33 17 47 2 27 -24 -30z"/>
<path d="M4217 3318 c-11 -9 -17 -31 -19 -67 -2 -39 -8 -57 -21 -65 -25 -15
-56 24 -58 73 -2 32 -3 32 -6 7 -6 -40 15 -85 43 -92 38 -10 54 12 54 73 0 40
4 55 16 60 25 10 48 -10 61 -53 6 -21 12 -32 12 -23 2 29 -21 79 -39 89 -23
12 -23 13 -43 -2z"/>
<path d="M2842 3298 c-13 -13 -16 -47 -4 -65 13 -20 55 -25 77 -9 24 18 15 38
-31 66 -23 15 -33 17 -42 8z"/>
<path d="M2750 3280 c0 -5 5 -10 10 -10 6 0 10 5 10 10 0 6 -4 10 -10 10 -5 0
-10 -4 -10 -10z"/>
<path d="M2716 3232 c-2 -4 -7 -24 -11 -45 -6 -33 -11 -38 -28 -33 -44 11 -69
-56 -26 -69 29 -10 49 13 56 64 3 23 9 44 14 46 4 3 24 -2 43 -12 27 -12 36
-23 37 -42 1 -21 3 -19 8 9 9 47 6 54 -35 73 -38 19 -51 21 -58 9z"/>
<path d="M695 3173 c6 -6 44 -23 85 -38 41 -14 71 -22 65 -17 -9 8 -36 20
-140 58 -14 5 -17 4 -10 -3z"/>
<path d="M2870 3143 c0 -9 3 -13 7 -10 3 4 12 2 20 -5 11 -8 12 -7 7 5 -8 22
-34 30 -34 10z"/>
<path d="M2848 3112 c-22 -4 -24 -42 -3 -42 16 0 30 23 23 38 -1 4 -11 6 -20
4z"/>
<path d="M2732 3098 c-18 -18 -14 -46 7 -58 11 -5 22 -10 25 -10 13 0 36 34
36 54 0 17 -6 22 -28 24 -15 1 -33 -3 -40 -10z"/>
<path d="M667 3067 c-10 -6 -24 -32 -31 -57 l-14 -46 80 -22 c45 -13 83 -21
85 -18 3 3 -6 8 -21 12 -29 7 -30 11 -16 48 5 15 24 32 45 40 43 19 46 29 3
14 -28 -10 -33 -9 -50 15 -21 29 -54 35 -81 14z m69 -22 c13 -20 14 -30 4 -60
-13 -40 -10 -39 -62 -23 -37 11 -39 14 -34 42 13 63 63 86 92 41z"/>
<path d="M4260 3023 c-36 -9 -66 -17 -68 -18 -2 -1 2 -24 8 -51 16 -66 20 -78
25 -72 2 2 -2 27 -9 56 -15 57 -16 57 31 67 32 6 33 6 39 -34 4 -23 11 -44 17
-48 6 -4 8 0 4 10 -3 8 -9 31 -12 50 -6 32 -5 34 26 41 38 7 44 0 53 -57 4
-22 9 -37 12 -35 2 3 -1 28 -7 57 -12 58 -12 58 -119 34z"/>
<path d="M615 2845 c-18 -17 -25 -35 -25 -62 1 -62 45 -100 106 -89 42 8 64
39 64 89 0 78 -91 117 -145 62z m112 -7 c54 -51 10 -148 -62 -134 -65 13 -89
96 -39 135 34 27 72 27 101 -1z"/>
<path d="M4311 2829 c-101 -12 -105 -23 -6 -14 l80 7 -55 -41 c-30 -23 -56
-46 -58 -50 -1 -4 26 -21 60 -36 52 -23 59 -29 43 -36 -11 -4 -36 -8 -55 -9
-19 -1 -44 -5 -55 -10 -15 -7 -12 -8 15 -5 19 2 61 7 93 10 31 4 57 9 57 13 0
4 -32 20 -70 36 -39 15 -70 32 -70 36 0 5 27 28 60 52 58 42 73 59 48 57 -7
-1 -46 -5 -87 -10z"/>
<path d="M2935 2737 c-17 -8 -45 -30 -62 -50 -107 -122 -30 -302 128 -300 134
2 218 136 160 256 -41 84 -149 129 -226 94z"/>
<path d="M577 2613 c-4 -3 -7 -13 -7 -22 1 -13 3 -13 11 2 11 19 8 33 -4 20z"/>
<path d="M685 2613 c35 -6 45 -18 45 -56 0 -33 -40 -77 -69 -77 -31 0 -68 20
-79 44 -8 16 -11 17 -11 4 -1 -25 47 -58 84 -58 25 0 40 8 59 31 45 53 30 120
-27 118 l-32 -2 30 -4z"/>
<path d="M4305 2556 c-48 -21 -68 -82 -43 -129 18 -34 39 -46 81 -47 53 0 87
35 87 89 0 72 -62 115 -125 87z m95 -26 c31 -31 27 -93 -6 -119 -54 -42 -120
-16 -130 51 -5 30 -2 41 19 62 33 33 88 35 117 6z"/>
<path d="M732 2383 c-2 -60 -3 -61 -107 -66 -57 -3 -56 -3 15 -5 41 -1 81 2
88 7 9 5 12 25 9 62 l-3 54 -2 -52z"/>
<path d="M2930 2343 c-192 -34 -367 -196 -358 -330 5 -81 66 -87 106 -10 64
121 168 197 283 205 66 4 69 4 97 -26 36 -38 45 -80 31 -135 -16 -67 -69 -129
-202 -235 -131 -106 -172 -155 -207 -250 -26 -68 -23 -99 11 -125 24 -17 30
-18 54 -6 33 16 41 29 55 87 14 54 51 96 170 190 131 105 183 161 222 239 28
58 33 77 32 143 0 57 -5 85 -21 116 -25 47 -82 100 -127 119 -37 16 -111 25
-146 18z"/>
<path d="M4300 2313 c-25 -9 -52 -37 -62 -62 -10 -27 -2 -81 13 -81 6 0 5 9
-1 21 -6 11 -8 33 -5 50 16 72 117 81 153 14 9 -15 11 -16 12 -4 0 35 -73 76
-110 62z"/>
<path d="M663 2212 c-40 -26 -72 -52 -72 -59 -1 -7 16 -17 37 -22 20 -6 60
-17 87 -26 60 -18 58 -18 50 -5 -3 6 -15 10 -26 10 -10 0 -19 3 -19 8 0 4 -13
8 -29 9 -16 1 -44 8 -62 16 l-33 13 54 32 c30 17 66 41 80 52 45 35 7 19 -67
-28z"/>
<path d="M4399 2198 c-7 -18 -15 -37 -17 -43 -2 -5 2 -3 11 5 14 14 32 70 23
70 -2 0 -10 -15 -17 -32z"/>
<path d="M702 2175 c0 -16 2 -22 5 -12 2 9 2 23 0 30 -3 6 -5 -1 -5 -18z"/>
<path d="M4211 2096 c7 -7 145 -36 167 -35 9 1 -8 7 -38 15 -74 18 -136 28
-129 20z"/>
<path d="M4196 1974 c-70 -71 4 -191 95 -153 61 25 78 107 31 152 -38 37 -89
37 -126 1z m127 -15 c35 -43 8 -119 -48 -133 -29 -7 -79 15 -89 39 -13 36 -6
76 20 102 21 21 32 24 62 19 20 -3 45 -15 55 -27z"/>
<path d="M742 1947 c-6 -7 -12 -35 -14 -62 -3 -46 -5 -50 -28 -50 -16 0 -29 8
-37 25 -7 14 -13 19 -13 12 0 -29 21 -52 49 -52 34 0 41 14 41 76 0 32 5 46
16 51 22 8 47 -9 55 -38 6 -21 7 -22 8 -3 2 40 -54 70 -77 41z"/>
<path d="M746 1755 c-35 -32 -35 -82 0 -124 62 -74 174 -7 144 85 -22 65 -94
85 -144 39z m102 -1 c68 -47 35 -144 -49 -144 -31 0 -69 44 -69 80 0 37 39 80
72 80 13 0 34 -7 46 -16z"/>
<path d="M4120 1773 c0 -5 22 -17 49 -27 95 -34 95 -40 -8 -66 -50 -12 -94
-26 -97 -31 -3 -5 -3 -9 0 -9 2 0 41 -16 85 -35 45 -19 81 -31 81 -27 0 4 -27
18 -60 31 -91 36 -92 35 53 76 31 8 57 19 57 23 0 6 -44 26 -152 70 -4 2 -8 0
-8 -5z"/>
<path d="M867 1539 c-85 -50 -83 -63 2 -15 33 19 61 32 61 28 0 -4 -14 -42
-31 -85 -17 -43 -29 -80 -26 -83 7 -7 134 63 144 79 3 6 -24 -6 -60 -27 -37
-20 -67 -33 -67 -28 0 5 14 42 30 82 44 107 45 107 -53 49z"/>
<path d="M4004 1538 c-9 -18 -24 -43 -32 -55 -8 -13 -10 -23 -5 -23 6 0 18 18
28 40 23 52 28 54 65 35 36 -18 36 -18 9 -62 -12 -19 -19 -36 -17 -38 2 -3 15
13 27 35 22 40 22 40 52 25 16 -9 29 -18 29 -21 0 -2 -9 -22 -20 -44 -30 -59
-24 -62 10 -5 34 58 35 56 -62 109 l-67 37 -17 -33z"/>
<path d="M3909 1380 c-24 -23 -30 -37 -27 -62 4 -44 42 -50 86 -13 61 52 113
5 57 -51 -14 -14 -24 -28 -22 -30 8 -8 57 57 57 74 -1 49 -39 58 -90 21 -47
-34 -73 -34 -78 0 -3 16 7 34 29 57 18 19 29 34 25 34 -4 0 -21 -13 -37 -30z"/>
<path d="M1080 1360 l31 -45 -27 -23 -27 -24 -35 39 -34 38 26 -37 c14 -20 26
-40 26 -45 0 -5 -13 -17 -30 -26 -16 -10 -30 -14 -30 -10 0 5 -14 24 -31 43
l-30 35 31 -47 c17 -27 34 -48 37 -48 14 0 133 92 133 103 0 7 -16 30 -36 52
l-36 40 32 -45z"/>
<path d="M1105 1180 c-40 -40 -54 -60 -42 -60 9 0 17 5 17 11 0 5 24 32 53 59
28 27 47 49 42 50 -6 0 -37 -27 -70 -60z"/>
<path d="M1192 1153 c14 -3 15 -9 8 -29 -6 -14 -10 -31 -9 -37 0 -11 27 49 28
66 1 4 -9 6 -21 6 -17 -1 -18 -3 -6 -6z"/>
<path d="M1138 1143 c6 -2 18 -2 25 0 6 3 1 5 -13 5 -14 0 -19 -2 -12 -5z"/>
<path d="M1098 1133 c7 -3 16 -2 19 1 4 3 -2 6 -13 5 -11 0 -14 -3 -6 -6z"/>
<path d="M1240 1075 c-50 -51 -60 -55 -54 -22 2 12 -2 6 -10 -13 -7 -19 -12
-37 -10 -39 5 -5 124 101 124 110 0 14 -3 12 -50 -36z"/>
<path d="M1440 961 c-16 -31 -12 -49 15 -67 36 -24 75 -6 75 34 0 15 -5 33
-12 40 -19 19 -66 15 -78 -7z"/>
<path d="M3603 944 c-15 -24 -15 -29 -2 -53 16 -29 61 -40 85 -20 17 14 19 70
2 87 -22 22 -66 14 -85 -14z"/>
<path d="M3015 805 c-5 -2 -29 -9 -53 -15 -54 -14 -117 -70 -133 -117 -16 -48
-6 -153 21 -225 40 -107 126 -153 239 -129 141 30 200 104 188 236 -11 120
-67 217 -140 244 -27 10 -100 14 -122 6z m93 -108 c45 -48 75 -174 53 -229
-23 -60 -115 -87 -163 -48 -50 38 -83 179 -58 240 25 60 126 82 168 37z"/>
<path d="M2260 750 c0 -5 34 -81 75 -169 72 -154 75 -161 75 -234 l0 -75 35
-6 c66 -13 75 -4 75 76 0 70 0 70 90 226 50 87 90 163 90 170 0 10 -15 12 -57
10 l-58 -3 -55 -107 c-30 -60 -57 -108 -60 -108 -3 0 -23 46 -44 103 -21 56
-43 108 -49 115 -11 14 -117 17 -117 2z"/>
<path d="M1977 673 c-3 -5 -8 -23 -12 -41 l-7 -34 -49 7 c-38 5 -49 4 -49 -7
0 -7 -3 -23 -6 -34 -5 -18 0 -23 33 -31 38 -9 38 -9 35 -55 -2 -40 0 -46 20
-52 40 -10 47 -7 54 29 8 44 15 48 59 36 33 -9 37 -8 47 14 15 34 4 53 -36 61
-39 7 -41 12 -27 62 9 30 8 34 -15 42 -30 12 -41 12 -47 3z"/>
</g>
</svg>
