<svg xmlns="http://www.w3.org/2000/svg" xmlns:xlink="http://www.w3.org/1999/xlink" width="1280" zoomAndPan="magnify" viewBox="0 0 960 959.999988" height="1280" preserveAspectRatio="xMidYMid meet" version="1.2"><defs><clipPath id="a347b298e3"><path d="M 37.5 37.5 L 922.5 37.5 L 922.5 922.5 L 37.5 922.5 Z M 37.5 37.5 "/></clipPath></defs><g id="a22bfe6e4f"><g clip-rule="nonzero" clip-path="url(#a347b298e3)"><path style=" stroke:none;fill-rule:nonzero;fill:#0cc0df;fill-opacity:1;" d="M 37.5 480 C 37.5 724.394531 235.605469 922.5 480 922.5 C 724.394531 922.5 922.5 724.394531 922.5 480 C 922.5 235.605469 724.394531 37.5 480 37.5 C 235.605469 37.5 37.5 235.605469 37.5 480 Z M 888.460938 480 C 888.460938 705.234375 705.234375 888.460938 480 888.460938 C 254.765625 888.460938 71.539062 705.234375 71.539062 480 C 71.539062 254.765625 254.765625 71.539062 480 71.539062 C 705.234375 71.539062 888.460938 254.765625 888.460938 480 Z M 888.460938 480 "/></g><path style=" stroke:none;fill-rule:nonzero;fill:#0cc0df;fill-opacity:1;" d="M 377.882812 411.921875 C 377.882812 413.039062 377.855469 414.152344 377.800781 415.261719 C 377.746094 416.375 377.667969 417.488281 377.558594 418.597656 C 377.449219 419.703125 377.3125 420.808594 377.148438 421.910156 C 376.984375 423.015625 376.792969 424.113281 376.578125 425.203125 C 376.359375 426.296875 376.113281 427.382812 375.84375 428.464844 C 375.574219 429.546875 375.277344 430.617188 374.953125 431.683594 C 374.628906 432.75 374.28125 433.808594 373.90625 434.859375 C 373.53125 435.90625 373.128906 436.945312 372.703125 437.976562 C 372.277344 439.003906 371.824219 440.023438 371.347656 441.03125 C 370.871094 442.035156 370.371094 443.03125 369.847656 444.015625 C 369.320312 444.996094 368.773438 445.964844 368.199219 446.921875 C 367.625 447.878906 367.03125 448.816406 366.410156 449.746094 C 365.792969 450.671875 365.152344 451.582031 364.488281 452.476562 C 363.824219 453.371094 363.136719 454.25 362.433594 455.109375 C 361.726562 455.972656 360.996094 456.816406 360.25 457.640625 C 359.5 458.464844 358.734375 459.273438 357.945312 460.0625 C 357.15625 460.847656 356.351562 461.617188 355.523438 462.363281 C 354.699219 463.113281 353.855469 463.839844 352.996094 464.546875 C 352.132812 465.253906 351.257812 465.9375 350.359375 466.601562 C 349.464844 467.265625 348.554688 467.90625 347.628906 468.527344 C 346.703125 469.144531 345.761719 469.742188 344.804688 470.316406 C 343.851562 470.886719 342.882812 471.4375 341.898438 471.960938 C 340.917969 472.488281 339.921875 472.988281 338.914062 473.464844 C 337.90625 473.941406 336.890625 474.390625 335.859375 474.816406 C 334.832031 475.246094 333.792969 475.644531 332.742188 476.019531 C 331.691406 476.394531 330.636719 476.746094 329.570312 477.070312 C 328.503906 477.390625 327.429688 477.6875 326.347656 477.960938 C 325.269531 478.230469 324.179688 478.472656 323.089844 478.691406 C 321.996094 478.910156 320.898438 479.101562 319.796875 479.261719 C 318.695312 479.425781 317.589844 479.5625 316.480469 479.671875 C 315.371094 479.78125 314.261719 479.863281 313.148438 479.917969 C 312.035156 479.972656 310.921875 480 309.808594 480 C 308.695312 480 307.582031 479.972656 306.46875 479.917969 C 305.355469 479.863281 304.242188 479.78125 303.136719 479.671875 C 302.027344 479.5625 300.921875 479.425781 299.820312 479.261719 C 298.714844 479.101562 297.621094 478.910156 296.527344 478.691406 C 295.433594 478.472656 294.347656 478.230469 293.265625 477.960938 C 292.1875 477.6875 291.113281 477.390625 290.046875 477.070312 C 288.980469 476.746094 287.921875 476.394531 286.875 476.019531 C 285.824219 475.644531 284.785156 475.246094 283.753906 474.816406 C 282.726562 474.390625 281.707031 473.941406 280.699219 473.464844 C 279.695312 472.988281 278.699219 472.488281 277.714844 471.960938 C 276.734375 471.4375 275.765625 470.886719 274.808594 470.316406 C 273.855469 469.742188 272.914062 469.144531 271.984375 468.527344 C 271.058594 467.90625 270.148438 467.265625 269.253906 466.601562 C 268.359375 465.9375 267.480469 465.253906 266.621094 464.546875 C 265.757812 463.839844 264.914062 463.113281 264.089844 462.363281 C 263.265625 461.617188 262.457031 460.847656 261.671875 460.0625 C 260.882812 459.273438 260.113281 458.464844 259.367188 457.640625 C 258.617188 456.816406 257.890625 455.972656 257.183594 455.109375 C 256.476562 454.25 255.792969 453.371094 255.128906 452.476562 C 254.464844 451.582031 253.824219 450.671875 253.203125 449.746094 C 252.585938 448.816406 251.988281 447.878906 251.417969 446.921875 C 250.84375 445.964844 250.292969 444.996094 249.769531 444.015625 C 249.242188 443.03125 248.742188 442.035156 248.265625 441.03125 C 247.789062 440.023438 247.339844 439.003906 246.914062 437.976562 C 246.488281 436.945312 246.085938 435.90625 245.710938 434.859375 C 245.335938 433.808594 244.984375 432.75 244.664062 431.683594 C 244.339844 430.617188 244.042969 429.546875 243.769531 428.464844 C 243.5 427.382812 243.257812 426.296875 243.039062 425.203125 C 242.820312 424.113281 242.632812 423.015625 242.46875 421.910156 C 242.304688 420.808594 242.167969 419.703125 242.058594 418.597656 C 241.949219 417.488281 241.867188 416.375 241.8125 415.261719 C 241.757812 414.152344 241.730469 413.039062 241.730469 411.921875 C 241.730469 410.808594 241.757812 409.695312 241.8125 408.582031 C 241.867188 407.46875 241.949219 406.359375 242.058594 405.25 C 242.167969 404.140625 242.304688 403.035156 242.46875 401.933594 C 242.632812 400.832031 242.820312 399.734375 243.039062 398.640625 C 243.257812 397.550781 243.5 396.460938 243.769531 395.382812 C 244.042969 394.300781 244.339844 393.226562 244.664062 392.160156 C 244.984375 391.09375 245.335938 390.039062 245.710938 388.988281 C 246.085938 387.941406 246.488281 386.902344 246.914062 385.871094 C 247.339844 384.84375 247.789062 383.824219 248.265625 382.816406 C 248.742188 381.808594 249.242188 380.8125 249.769531 379.832031 C 250.292969 378.847656 250.84375 377.878906 251.417969 376.925781 C 251.988281 375.96875 252.585938 375.027344 253.203125 374.101562 C 253.824219 373.175781 254.464844 372.265625 255.128906 371.371094 C 255.792969 370.476562 256.476562 369.597656 257.183594 368.734375 C 257.890625 367.875 258.617188 367.03125 259.367188 366.207031 C 260.113281 365.378906 260.882812 364.574219 261.671875 363.785156 C 262.457031 362.996094 263.265625 362.230469 264.089844 361.480469 C 264.914062 360.734375 265.757812 360.003906 266.621094 359.300781 C 267.480469 358.59375 268.359375 357.90625 269.253906 357.242188 C 270.148438 356.578125 271.058594 355.9375 271.984375 355.320312 C 272.914062 354.699219 273.855469 354.105469 274.808594 353.53125 C 275.765625 352.957031 276.734375 352.410156 277.714844 351.882812 C 278.699219 351.359375 279.695312 350.859375 280.699219 350.382812 C 281.707031 349.90625 282.726562 349.453125 283.753906 349.027344 C 284.785156 348.601562 285.824219 348.199219 286.875 347.824219 C 287.921875 347.449219 288.980469 347.101562 290.046875 346.777344 C 291.113281 346.453125 292.1875 346.15625 293.265625 345.886719 C 294.347656 345.617188 295.433594 345.371094 296.527344 345.152344 C 297.621094 344.9375 298.714844 344.746094 299.820312 344.582031 C 300.921875 344.417969 302.027344 344.285156 303.136719 344.175781 C 304.242188 344.066406 305.355469 343.984375 306.46875 343.929688 C 307.582031 343.875 308.695312 343.847656 309.808594 343.847656 C 310.921875 343.847656 312.035156 343.875 313.148438 343.929688 C 314.261719 343.984375 315.371094 344.066406 316.480469 344.175781 C 317.589844 344.285156 318.695312 344.417969 319.796875 344.582031 C 320.898438 344.746094 321.996094 344.9375 323.089844 345.152344 C 324.179688 345.371094 325.269531 345.617188 326.347656 345.886719 C 327.429688 346.15625 328.503906 346.453125 329.570312 346.777344 C 330.636719 347.101562 331.691406 347.449219 332.742188 347.824219 C 333.792969 348.199219 334.832031 348.601562 335.859375 349.027344 C 336.890625 349.453125 337.90625 349.90625 338.914062 350.382812 C 339.921875 350.859375 340.917969 351.359375 341.898438 351.882812 C 342.882812 352.410156 343.851562 352.957031 344.804688 353.53125 C 345.761719 354.105469 346.703125 354.699219 347.628906 355.320312 C 348.554688 355.9375 349.464844 356.578125 350.359375 357.242188 C 351.257812 357.90625 352.132812 358.59375 352.996094 359.300781 C 353.855469 360.003906 354.699219 360.734375 355.523438 361.480469 C 356.351562 362.230469 357.15625 362.996094 357.945312 363.785156 C 358.734375 364.574219 359.5 365.378906 360.25 366.207031 C 360.996094 367.03125 361.726562 367.875 362.433594 368.734375 C 363.136719 369.597656 363.824219 370.476562 364.488281 371.371094 C 365.152344 372.265625 365.792969 373.175781 366.410156 374.101562 C 367.03125 375.027344 367.625 375.96875 368.199219 376.925781 C 368.773438 377.878906 369.320312 378.847656 369.847656 379.832031 C 370.371094 380.8125 370.871094 381.808594 371.347656 382.816406 C 371.824219 383.824219 372.277344 384.84375 372.703125 385.871094 C 373.128906 386.902344 373.53125 387.941406 373.90625 388.988281 C 374.28125 390.039062 374.628906 391.09375 374.953125 392.160156 C 375.277344 393.226562 375.574219 394.300781 375.84375 395.382812 C 376.113281 396.460938 376.359375 397.550781 376.578125 398.640625 C 376.792969 399.734375 376.984375 400.832031 377.148438 401.933594 C 377.3125 403.035156 377.449219 404.140625 377.558594 405.25 C 377.667969 406.359375 377.746094 407.46875 377.800781 408.582031 C 377.855469 409.695312 377.882812 410.808594 377.882812 411.921875 Z M 377.882812 411.921875 "/><path style=" stroke:none;fill-rule:nonzero;fill:#0cc0df;fill-opacity:1;" d="M 718.269531 411.921875 C 718.269531 413.039062 718.242188 414.152344 718.1875 415.261719 C 718.132812 416.375 718.050781 417.488281 717.941406 418.597656 C 717.832031 419.703125 717.695312 420.808594 717.53125 421.910156 C 717.367188 423.015625 717.179688 424.113281 716.960938 425.203125 C 716.742188 426.296875 716.5 427.382812 716.230469 428.464844 C 715.957031 429.546875 715.660156 430.617188 715.335938 431.683594 C 715.015625 432.75 714.664062 433.808594 714.289062 434.859375 C 713.914062 435.90625 713.511719 436.945312 713.085938 437.976562 C 712.660156 439.003906 712.210938 440.023438 711.734375 441.03125 C 711.257812 442.035156 710.757812 443.03125 710.230469 444.015625 C 709.707031 444.996094 709.15625 445.964844 708.582031 446.921875 C 708.011719 447.878906 707.414062 448.816406 706.796875 449.746094 C 706.175781 450.671875 705.535156 451.582031 704.871094 452.476562 C 704.207031 453.371094 703.523438 454.25 702.816406 455.109375 C 702.109375 455.972656 701.382812 456.816406 700.632812 457.640625 C 699.886719 458.464844 699.117188 459.273438 698.328125 460.0625 C 697.542969 460.847656 696.734375 461.617188 695.910156 462.363281 C 695.085938 463.113281 694.242188 463.839844 693.378906 464.546875 C 692.519531 465.253906 691.640625 465.9375 690.746094 466.601562 C 689.851562 467.265625 688.941406 467.90625 688.015625 468.527344 C 687.085938 469.144531 686.144531 469.742188 685.191406 470.316406 C 684.234375 470.886719 683.265625 471.4375 682.285156 471.960938 C 681.300781 472.488281 680.304688 472.988281 679.300781 473.464844 C 678.292969 473.941406 677.273438 474.390625 676.246094 474.816406 C 675.214844 475.246094 674.175781 475.644531 673.125 476.019531 C 672.078125 476.394531 671.019531 476.746094 669.953125 477.070312 C 668.886719 477.390625 667.8125 477.6875 666.734375 477.960938 C 665.652344 478.230469 664.566406 478.472656 663.472656 478.691406 C 662.378906 478.910156 661.285156 479.101562 660.179688 479.261719 C 659.078125 479.425781 657.972656 479.5625 656.863281 479.671875 C 655.757812 479.78125 654.644531 479.863281 653.53125 479.917969 C 652.417969 479.972656 651.304688 480 650.191406 480 C 649.078125 480 647.964844 479.972656 646.851562 479.917969 C 645.738281 479.863281 644.628906 479.78125 643.519531 479.671875 C 642.410156 479.5625 641.304688 479.425781 640.203125 479.261719 C 639.101562 479.101562 638.003906 478.910156 636.910156 478.691406 C 635.820312 478.472656 634.730469 478.230469 633.652344 477.960938 C 632.570312 477.6875 631.496094 477.390625 630.429688 477.070312 C 629.363281 476.746094 628.308594 476.394531 627.257812 476.019531 C 626.207031 475.644531 625.167969 475.246094 624.140625 474.816406 C 623.109375 474.390625 622.09375 473.941406 621.085938 473.464844 C 620.078125 472.988281 619.082031 472.488281 618.101562 471.960938 C 617.117188 471.4375 616.148438 470.886719 615.195312 470.316406 C 614.238281 469.742188 613.296875 469.144531 612.371094 468.527344 C 611.445312 467.90625 610.535156 467.265625 609.640625 466.601562 C 608.742188 465.9375 607.867188 465.253906 607.003906 464.546875 C 606.144531 463.839844 605.300781 463.113281 604.472656 462.363281 C 603.648438 461.617188 602.84375 460.847656 602.054688 460.0625 C 601.265625 459.273438 600.5 458.464844 599.75 457.640625 C 599.003906 456.816406 598.273438 455.972656 597.566406 455.109375 C 596.859375 454.25 596.175781 453.371094 595.511719 452.476562 C 594.847656 451.582031 594.207031 450.671875 593.589844 449.746094 C 592.96875 448.816406 592.375 447.878906 591.800781 446.921875 C 591.226562 445.964844 590.679688 444.996094 590.152344 444.015625 C 589.628906 443.03125 589.128906 442.035156 588.652344 441.03125 C 588.175781 440.023438 587.722656 439.003906 587.296875 437.976562 C 586.871094 436.945312 586.46875 435.90625 586.09375 434.859375 C 585.71875 433.808594 585.371094 432.75 585.046875 431.683594 C 584.722656 430.617188 584.425781 429.546875 584.15625 428.464844 C 583.886719 427.382812 583.640625 426.296875 583.421875 425.203125 C 583.207031 424.113281 583.015625 423.015625 582.851562 421.910156 C 582.6875 420.808594 582.550781 419.703125 582.441406 418.597656 C 582.332031 417.488281 582.253906 416.375 582.199219 415.261719 C 582.144531 414.152344 582.117188 413.039062 582.117188 411.921875 C 582.117188 410.808594 582.144531 409.695312 582.199219 408.582031 C 582.253906 407.46875 582.332031 406.359375 582.441406 405.25 C 582.550781 404.140625 582.6875 403.035156 582.851562 401.933594 C 583.015625 400.832031 583.207031 399.734375 583.421875 398.640625 C 583.640625 397.550781 583.886719 396.460938 584.15625 395.382812 C 584.425781 394.300781 584.722656 393.226562 585.046875 392.160156 C 585.371094 391.09375 585.71875 390.039062 586.09375 388.988281 C 586.46875 387.941406 586.871094 386.902344 587.296875 385.871094 C 587.722656 384.84375 588.175781 383.824219 588.652344 382.816406 C 589.128906 381.808594 589.628906 380.8125 590.152344 379.832031 C 590.679688 378.847656 591.226562 377.878906 591.800781 376.925781 C 592.375 375.96875 592.96875 375.027344 593.589844 374.101562 C 594.207031 373.175781 594.847656 372.265625 595.511719 371.371094 C 596.175781 370.476562 596.859375 369.597656 597.566406 368.734375 C 598.273438 367.875 599.003906 367.03125 599.75 366.207031 C 600.5 365.378906 601.265625 364.574219 602.054688 363.785156 C 602.84375 362.996094 603.648438 362.230469 604.472656 361.480469 C 605.300781 360.734375 606.144531 360.003906 607.003906 359.300781 C 607.867188 358.59375 608.742188 357.90625 609.640625 357.242188 C 610.535156 356.578125 611.445312 355.9375 612.371094 355.320312 C 613.296875 354.699219 614.238281 354.105469 615.195312 353.53125 C 616.148438 352.957031 617.117188 352.410156 618.101562 351.882812 C 619.082031 351.359375 620.078125 350.859375 621.085938 350.382812 C 622.09375 349.90625 623.109375 349.453125 624.140625 349.027344 C 625.167969 348.601562 626.207031 348.199219 627.257812 347.824219 C 628.308594 347.449219 629.363281 347.101562 630.429688 346.777344 C 631.496094 346.453125 632.570312 346.15625 633.652344 345.886719 C 634.730469 345.617188 635.820312 345.371094 636.910156 345.152344 C 638.003906 344.9375 639.101562 344.746094 640.203125 344.582031 C 641.304688 344.417969 642.410156 344.285156 643.519531 344.175781 C 644.628906 344.066406 645.738281 343.984375 646.851562 343.929688 C 647.964844 343.875 649.078125 343.847656 650.191406 343.847656 C 651.304688 343.847656 652.417969 343.875 653.53125 343.929688 C 654.644531 343.984375 655.757812 344.066406 656.863281 344.175781 C 657.972656 344.285156 659.078125 344.417969 660.179688 344.582031 C 661.285156 344.746094 662.378906 344.9375 663.472656 345.152344 C 664.566406 345.371094 665.652344 345.617188 666.734375 345.886719 C 667.8125 346.15625 668.886719 346.453125 669.953125 346.777344 C 671.019531 347.101562 672.078125 347.449219 673.125 347.824219 C 674.175781 348.199219 675.214844 348.601562 676.246094 349.027344 C 677.273438 349.453125 678.292969 349.90625 679.300781 350.382812 C 680.304688 350.859375 681.300781 351.359375 682.285156 351.882812 C 683.265625 352.410156 684.234375 352.957031 685.191406 353.53125 C 686.144531 354.105469 687.085938 354.699219 688.015625 355.320312 C 688.941406 355.9375 689.851562 356.578125 690.746094 357.242188 C 691.640625 357.90625 692.519531 358.59375 693.378906 359.300781 C 694.242188 360.003906 695.085938 360.734375 695.910156 361.480469 C 696.734375 362.230469 697.542969 362.996094 698.328125 363.785156 C 699.117188 364.574219 699.886719 365.378906 700.632812 366.207031 C 701.382812 367.03125 702.109375 367.875 702.816406 368.734375 C 703.523438 369.597656 704.207031 370.476562 704.871094 371.371094 C 705.535156 372.265625 706.175781 373.175781 706.796875 374.101562 C 707.414062 375.027344 708.011719 375.96875 708.582031 376.925781 C 709.15625 377.878906 709.707031 378.847656 710.230469 379.832031 C 710.757812 380.8125 711.257812 381.808594 711.734375 382.816406 C 712.210938 383.824219 712.660156 384.84375 713.085938 385.871094 C 713.511719 386.902344 713.914062 387.941406 714.289062 388.988281 C 714.664062 390.039062 715.015625 391.09375 715.339844 392.160156 C 715.660156 393.226562 715.957031 394.300781 716.230469 395.382812 C 716.5 396.460938 716.742188 397.550781 716.960938 398.640625 C 717.179688 399.734375 717.367188 400.832031 717.53125 401.933594 C 717.695312 403.035156 717.832031 404.140625 717.941406 405.25 C 718.050781 406.359375 718.132812 407.46875 718.1875 408.582031 C 718.242188 409.695312 718.269531 410.808594 718.269531 411.921875 Z M 718.269531 411.921875 "/><path style=" stroke:none;fill-rule:nonzero;fill:#0cc0df;fill-opacity:1;" d="M 480 718.269531 C 355.078125 718.269531 292.515625 627.558594 289.894531 623.710938 L 261.609375 642.636719 C 264.605469 647.09375 336.390625 752.308594 480 752.308594 C 623.609375 752.308594 695.394531 647.09375 698.390625 642.601562 L 670.070312 623.710938 C 669.425781 624.664062 605.601562 718.269531 480 718.269531 Z M 480 718.269531 "/></g></svg>