<svg xmlns="http://www.w3.org/2000/svg" xmlns:xlink="http://www.w3.org/1999/xlink" width="1280" zoomAndPan="magnify" viewBox="0 0 960 959.999988" height="1280" preserveAspectRatio="xMidYMid meet" version="1.2"><defs><clipPath id="e7789d123c"><path d="M 37.5 37.5 L 922.5 37.5 L 922.5 922.5 L 37.5 922.5 Z M 37.5 37.5 "/></clipPath></defs><g id="5dabac89af"><g clip-rule="nonzero" clip-path="url(#e7789d123c)"><path style=" stroke:none;fill-rule:nonzero;fill:#ff3131;fill-opacity:1;" d="M 480 37.5 C 236.132812 37.5 37.5 236.132812 37.5 480 C 37.5 723.867188 236.132812 922.5 480 922.5 C 723.867188 922.5 922.5 723.867188 922.5 480 C 922.5 236.132812 723.867188 37.5 480 37.5 Z M 480 883.167969 C 257.765625 883.167969 76.832031 702.234375 76.832031 480 C 76.832031 257.765625 257.765625 76.832031 480 76.832031 C 702.234375 76.832031 883.167969 257.765625 883.167969 480 C 883.167969 702.234375 702.234375 883.167969 480 883.167969 Z M 681.582031 692.398438 C 689.449219 700.265625 689.449219 712.066406 681.582031 719.933594 C 677.648438 723.867188 672.734375 725.832031 667.816406 725.832031 C 662.898438 725.832031 657.984375 723.867188 654.050781 719.933594 C 607.832031 673.714844 545.882812 648.148438 480 648.148438 C 414.117188 648.148438 352.167969 673.714844 305.949219 719.933594 C 298.082031 727.800781 286.285156 727.800781 278.417969 719.933594 C 270.550781 712.066406 270.550781 700.265625 278.417969 692.398438 C 332.5 638.316406 404.285156 608.816406 480 608.816406 C 555.714844 608.816406 627.5 638.316406 681.582031 692.398438 Z M 293.167969 529.167969 C 265.632812 529.167969 244 507.535156 244 480 C 244 452.464844 265.632812 430.832031 293.167969 430.832031 C 320.699219 430.832031 342.332031 452.464844 342.332031 480 C 342.332031 507.535156 320.699219 529.167969 293.167969 529.167969 Z M 716 480 C 716 507.535156 694.367188 529.167969 666.832031 529.167969 C 639.300781 529.167969 617.667969 507.535156 617.667969 480 C 617.667969 452.464844 639.300781 430.832031 666.832031 430.832031 C 694.367188 430.832031 716 452.464844 716 480 Z M 333.484375 409.199219 L 215.484375 350.199219 C 205.648438 345.285156 201.714844 333.484375 206.632812 323.648438 C 211.550781 313.816406 223.351562 309.882812 233.183594 314.800781 L 351.183594 373.800781 C 361.015625 378.714844 364.949219 390.515625 360.035156 400.351562 C 356.101562 407.234375 349.214844 411.167969 342.332031 411.167969 C 339.382812 411.167969 336.433594 410.183594 333.484375 409.199219 Z M 753.367188 323.648438 C 758.285156 333.484375 754.351562 345.285156 744.515625 350.199219 L 626.515625 409.199219 C 623.566406 410.183594 620.617188 411.167969 617.667969 411.167969 C 610.785156 411.167969 603.898438 407.234375 599.964844 400.351562 C 595.050781 390.515625 598.984375 378.714844 608.816406 373.800781 L 726.816406 314.800781 C 736.648438 309.882812 748.449219 313.816406 753.367188 323.648438 Z M 753.367188 323.648438 "/></g></g></svg>