<svg xmlns="http://www.w3.org/2000/svg" xmlns:xlink="http://www.w3.org/1999/xlink" width="1280" zoomAndPan="magnify" viewBox="0 0 960 959.999988" height="1280" preserveAspectRatio="xMidYMid meet" version="1.2"><defs><clipPath id="372d667a93"><path d="M 37.5 37.5 L 922.5 37.5 L 922.5 922.5 L 37.5 922.5 Z M 37.5 37.5 "/></clipPath></defs><g id="ffedcd62c5"><path style=" stroke:none;fill-rule:nonzero;fill:#00bf63;fill-opacity:1;" d="M 358.3125 457.875 C 363.152344 459.949219 368.683594 459.949219 372.832031 456.492188 C 376.980469 453.035156 379.054688 448.195312 378.363281 442.664062 L 367.300781 379.746094 L 413.625 335.496094 C 417.773438 332.039062 419.15625 326.507812 417.082031 320.976562 C 415.699219 316.136719 410.859375 311.988281 406.019531 311.296875 L 341.71875 303 L 312.679688 245.613281 C 310.605469 240.773438 305.765625 238.007812 300.234375 238.007812 C 294.703125 238.007812 290.554688 240.773438 287.789062 245.613281 L 258.75 303 L 194.449219 311.988281 C 188.917969 312.679688 184.769531 316.136719 183.386719 321.667969 C 182.003906 326.507812 183.386719 332.039062 186.84375 336.1875 L 233.167969 380.4375 L 222.105469 443.355469 C 221.414062 448.195312 223.488281 453.726562 227.636719 457.183594 C 231.785156 459.949219 237.316406 460.640625 242.15625 458.566406 L 300.234375 428.835938 Z M 254.601562 420.539062 L 262.207031 377.671875 C 262.898438 372.832031 261.515625 368.683594 258.058594 365.226562 L 226.945312 335.496094 L 270.503906 329.273438 C 274.652344 328.582031 278.800781 325.816406 280.875 321.667969 L 300.234375 282.257812 L 319.59375 321.667969 C 321.667969 325.816406 325.816406 328.582031 329.964844 329.273438 L 373.523438 335.496094 L 342.410156 365.226562 C 338.953125 368.683594 337.570312 372.832031 338.261719 377.671875 L 345.867188 420.539062 L 306.457031 400.488281 C 304.382812 399.796875 302.308594 399.105469 300.234375 399.105469 C 298.160156 399.105469 296.085938 399.796875 294.011719 400.488281 Z M 254.601562 420.539062 "/><path style=" stroke:none;fill-rule:nonzero;fill:#00bf63;fill-opacity:1;" d="M 776.613281 321.667969 C 775.230469 316.828125 770.390625 312.679688 765.550781 311.988281 L 701.25 303 L 672.210938 245.613281 C 670.136719 240.773438 665.296875 238.007812 659.765625 238.007812 C 654.234375 238.007812 650.085938 240.773438 647.320312 245.613281 L 618.28125 303 L 553.980469 311.988281 C 548.449219 312.679688 544.300781 316.136719 542.917969 321.667969 C 541.535156 326.507812 542.917969 332.039062 546.375 336.1875 L 592.699219 380.4375 L 581.636719 443.355469 C 580.945312 448.195312 583.019531 453.726562 587.167969 457.183594 C 591.316406 459.949219 596.847656 460.640625 601.6875 458.566406 L 659.765625 428.835938 L 717.84375 458.566406 C 722.683594 460.640625 728.214844 460.640625 732.363281 457.183594 C 736.511719 453.726562 738.585938 448.886719 737.894531 443.355469 L 726.832031 380.4375 L 773.15625 336.1875 C 776.613281 332.039062 777.996094 326.507812 776.613281 321.667969 Z M 701.941406 365.226562 C 698.484375 368.683594 697.101562 372.832031 697.792969 377.671875 L 705.398438 420.539062 L 665.988281 400.488281 C 663.914062 399.796875 661.839844 399.105469 659.765625 399.105469 C 657.691406 399.105469 655.617188 399.796875 653.542969 400.488281 L 614.132812 420.539062 L 621.738281 377.671875 C 622.429688 372.832031 621.046875 368.683594 617.589844 365.226562 L 586.476562 335.496094 L 630.035156 329.273438 C 634.183594 328.582031 638.332031 325.816406 640.40625 321.667969 L 659.765625 282.257812 L 679.125 321.667969 C 681.199219 325.816406 685.347656 328.582031 689.496094 329.273438 L 733.054688 335.496094 Z M 701.941406 365.226562 "/><g clip-rule="nonzero" clip-path="url(#372d667a93)"><path style=" stroke:none;fill-rule:nonzero;fill:#00bf63;fill-opacity:1;" d="M 480 37.5 C 235.933594 37.5 37.5 235.933594 37.5 480 C 37.5 724.066406 235.933594 922.5 480 922.5 C 724.066406 922.5 922.5 724.066406 922.5 480 C 922.5 235.933594 724.066406 37.5 480 37.5 Z M 480 894.84375 C 251.144531 894.84375 65.15625 708.855469 65.15625 480 C 65.15625 251.144531 251.144531 65.15625 480 65.15625 C 708.855469 65.15625 894.84375 251.144531 894.84375 480 C 894.84375 708.855469 708.855469 894.84375 480 894.84375 Z M 480 894.84375 "/></g><path style=" stroke:none;fill-rule:nonzero;fill:#00bf63;fill-opacity:1;" d="M 701.25 569.882812 L 258.75 569.882812 C 251.144531 569.882812 244.921875 576.105469 244.921875 583.710938 C 244.921875 671.519531 293.320312 751.03125 370.757812 791.824219 C 403.945312 809.800781 441.972656 818.789062 480 818.789062 C 518.027344 818.789062 556.054688 809.800781 589.242188 791.824219 C 666.679688 751.03125 715.078125 671.519531 715.078125 583.710938 C 715.078125 576.105469 708.855469 569.882812 701.25 569.882812 Z M 480 791.132812 C 453.726562 791.132812 426.761719 785.601562 402.5625 775.921875 C 416.390625 747.574219 446.121094 728.90625 480 728.90625 C 502.816406 728.90625 524.25 737.203125 540.152344 752.414062 C 547.757812 759.328125 553.289062 766.933594 557.4375 775.921875 C 533.238281 785.601562 506.273438 791.132812 480 791.132812 Z M 582.328125 764.167969 C 576.796875 752.414062 569.191406 741.351562 559.511719 732.363281 C 538.078125 712.3125 509.730469 701.25 480 701.25 C 435.75 701.25 396.339844 726.140625 377.671875 764.167969 C 337.570312 741.351562 307.148438 707.472656 289.863281 666.679688 L 670.136719 666.679688 C 652.160156 707.472656 621.738281 741.351562 582.328125 764.167969 Z M 679.816406 639.023438 L 280.183594 639.023438 C 276.726562 625.886719 273.960938 612.058594 273.269531 597.539062 L 687.421875 597.539062 C 686.039062 612.058594 683.273438 625.886719 679.816406 639.023438 Z M 679.816406 639.023438 "/></g></svg>