<svg xmlns="http://www.w3.org/2000/svg" xmlns:xlink="http://www.w3.org/1999/xlink" width="1280" zoomAndPan="magnify" viewBox="0 0 960 959.999988" height="1280" preserveAspectRatio="xMidYMid meet" version="1.2"><defs><clipPath id="170b8e9ba4"><path d="M 37.5 37.5 L 922.5 37.5 L 922.5 922.5 L 37.5 922.5 Z M 37.5 37.5 "/></clipPath></defs><g id="5827080a61"><g clip-rule="nonzero" clip-path="url(#170b8e9ba4)"><path style=" stroke:none;fill-rule:nonzero;fill:#ffde59;fill-opacity:1;" d="M 480 37.496094 C 236.007812 37.496094 37.5 236.003906 37.5 480 C 37.5 724 236.007812 922.5 480 922.5 C 723.992188 922.5 922.503906 724 922.503906 480 C 922.503906 236.003906 723.992188 37.496094 480 37.496094 Z M 480 885.625 C 256.332031 885.625 74.375 703.660156 74.375 480 C 74.375 256.328125 256.332031 74.371094 480 74.371094 C 703.664062 74.371094 885.628906 256.328125 885.628906 480 C 885.628906 703.660156 703.664062 885.625 480 885.625 Z M 480 885.625 "/></g><path style=" stroke:none;fill-rule:nonzero;fill:#ffde59;fill-opacity:1;" d="M 682.816406 369.382812 L 572.183594 369.382812 C 561.996094 369.382812 553.75 377.621094 553.75 387.808594 C 553.75 398.011719 561.996094 406.25 572.183594 406.25 L 590.625 406.25 C 590.625 426.574219 607.175781 443.125 627.5 443.125 C 647.824219 443.125 664.375 426.574219 664.375 406.25 L 682.816406 406.25 C 693.003906 406.25 701.25 398.011719 701.25 387.808594 C 701.25 377.621094 693.003906 369.382812 682.816406 369.382812 Z M 682.816406 369.382812 "/><path style=" stroke:none;fill-rule:nonzero;fill:#ffde59;fill-opacity:1;" d="M 369.378906 406.25 L 387.8125 406.25 C 398.007812 406.25 406.253906 397.996094 406.253906 387.808594 C 406.253906 377.613281 398.007812 369.367188 387.8125 369.367188 L 277.1875 369.367188 C 267 369.367188 258.746094 377.613281 258.746094 387.808594 C 258.746094 397.996094 267 406.25 277.1875 406.25 L 295.628906 406.25 C 295.628906 426.574219 312.171875 443.125 332.503906 443.125 C 352.828125 443.125 369.378906 426.574219 369.378906 406.25 Z M 369.378906 406.25 "/><path style=" stroke:none;fill-rule:nonzero;fill:#ffde59;fill-opacity:1;" d="M 609.066406 664.371094 L 350.9375 664.371094 C 340.742188 664.371094 332.496094 672.617188 332.496094 682.8125 C 332.496094 693 340.742188 701.246094 350.9375 701.246094 L 609.058594 701.246094 C 619.253906 701.246094 627.5 693 627.5 682.8125 C 627.5 672.617188 619.253906 664.371094 609.066406 664.371094 Z M 609.066406 664.371094 "/></g></svg>