<svg xmlns="http://www.w3.org/2000/svg" xmlns:xlink="http://www.w3.org/1999/xlink" width="1280" zoomAndPan="magnify" viewBox="0 0 960 959.999988" height="1280" preserveAspectRatio="xMidYMid meet" version="1.2"><defs><clipPath id="0e3e3a0f43"><path d="M 37.5 37.5 L 922.5 37.5 L 922.5 922.5 L 37.5 922.5 Z M 37.5 37.5 "/></clipPath></defs><g id="6bc2e87484"><g clip-rule="nonzero" clip-path="url(#0e3e3a0f43)"><path style=" stroke:none;fill-rule:nonzero;fill:#1800ad;fill-opacity:1;" d="M 480 37.5 C 236.4375 37.5 37.5 236.4375 37.5 480 C 37.5 723.5625 236.4375 922.5 480 922.5 C 723.5625 922.5 922.5 723.5625 922.5 480 C 922.5 236.4375 723.5625 37.5 480 37.5 Z M 480 74.683594 C 703.109375 74.683594 885.316406 256.890625 885.316406 480 C 885.316406 703.109375 703.109375 885.316406 480 885.316406 C 256.890625 885.316406 74.683594 703.109375 74.683594 480 C 74.683594 256.890625 256.890625 74.683594 480 74.683594 Z M 480 74.683594 "/></g><path style=" stroke:none;fill-rule:nonzero;fill:#1800ad;fill-opacity:1;" d="M 387.039062 346.132812 C 387.039062 347.960938 386.949219 349.785156 386.769531 351.601562 C 386.589844 353.417969 386.324219 355.222656 385.964844 357.015625 C 385.609375 358.808594 385.167969 360.578125 384.636719 362.324219 C 384.105469 364.074219 383.492188 365.792969 382.792969 367.480469 C 382.09375 369.167969 381.3125 370.816406 380.453125 372.425781 C 379.589844 374.039062 378.652344 375.605469 377.636719 377.121094 C 376.621094 378.640625 375.535156 380.105469 374.378906 381.519531 C 373.21875 382.929688 371.992188 384.28125 370.699219 385.574219 C 369.410156 386.867188 368.058594 388.09375 366.644531 389.25 C 365.234375 390.410156 363.769531 391.496094 362.25 392.511719 C 360.730469 393.527344 359.164062 394.464844 357.554688 395.324219 C 355.941406 396.1875 354.292969 396.96875 352.605469 397.664062 C 350.917969 398.363281 349.199219 398.980469 347.453125 399.511719 C 345.703125 400.039062 343.933594 400.484375 342.140625 400.839844 C 340.351562 401.195312 338.546875 401.464844 336.726562 401.644531 C 334.910156 401.820312 333.085938 401.910156 331.261719 401.910156 C 329.433594 401.910156 327.613281 401.820312 325.792969 401.644531 C 323.976562 401.464844 322.171875 401.195312 320.378906 400.839844 C 318.585938 400.484375 316.816406 400.039062 315.070312 399.511719 C 313.320312 398.980469 311.601562 398.363281 309.914062 397.664062 C 308.226562 396.96875 306.578125 396.1875 304.96875 395.324219 C 303.355469 394.464844 301.792969 393.527344 300.273438 392.511719 C 298.753906 391.496094 297.289062 390.410156 295.875 389.25 C 294.464844 388.09375 293.113281 386.867188 291.820312 385.574219 C 290.527344 384.28125 289.304688 382.929688 288.144531 381.519531 C 286.984375 380.105469 285.898438 378.640625 284.882812 377.121094 C 283.867188 375.605469 282.929688 374.039062 282.070312 372.425781 C 281.207031 370.816406 280.429688 369.167969 279.730469 367.480469 C 279.03125 365.792969 278.414062 364.074219 277.886719 362.324219 C 277.355469 360.578125 276.910156 358.808594 276.554688 357.015625 C 276.199219 355.222656 275.929688 353.417969 275.75 351.601562 C 275.574219 349.785156 275.484375 347.960938 275.484375 346.132812 C 275.484375 344.308594 275.574219 342.484375 275.75 340.667969 C 275.929688 338.847656 276.199219 337.042969 276.554688 335.253906 C 276.910156 333.460938 277.355469 331.691406 277.886719 329.941406 C 278.414062 328.195312 279.03125 326.476562 279.730469 324.789062 C 280.429688 323.101562 281.207031 321.453125 282.070312 319.839844 C 282.929688 318.230469 283.867188 316.664062 284.882812 315.144531 C 285.898438 313.628906 286.984375 312.160156 288.144531 310.75 C 289.304688 309.335938 290.527344 307.984375 291.820312 306.695312 C 293.113281 305.402344 294.464844 304.175781 295.875 303.019531 C 297.289062 301.859375 298.753906 300.773438 300.273438 299.757812 C 301.792969 298.742188 303.355469 297.804688 304.96875 296.941406 C 306.578125 296.082031 308.226562 295.300781 309.914062 294.601562 C 311.601562 293.902344 313.320312 293.289062 315.070312 292.757812 C 316.816406 292.230469 318.585938 291.785156 320.378906 291.429688 C 322.171875 291.074219 323.976562 290.804688 325.792969 290.625 C 327.613281 290.445312 329.433594 290.355469 331.261719 290.355469 C 333.085938 290.355469 334.910156 290.445312 336.726562 290.625 C 338.546875 290.804688 340.351562 291.074219 342.140625 291.429688 C 343.933594 291.785156 345.703125 292.230469 347.453125 292.757812 C 349.199219 293.289062 350.917969 293.902344 352.605469 294.601562 C 354.292969 295.300781 355.941406 296.082031 357.554688 296.941406 C 359.164062 297.804688 360.730469 298.742188 362.25 299.757812 C 363.769531 300.773438 365.234375 301.859375 366.644531 303.019531 C 368.058594 304.175781 369.410156 305.402344 370.699219 306.695312 C 371.992188 307.984375 373.21875 309.335938 374.375 310.75 C 375.535156 312.160156 376.621094 313.628906 377.636719 315.144531 C 378.652344 316.664062 379.589844 318.230469 380.453125 319.839844 C 381.3125 321.453125 382.09375 323.101562 382.792969 324.789062 C 383.492188 326.476562 384.105469 328.195312 384.636719 329.941406 C 385.167969 331.691406 385.609375 333.460938 385.964844 335.253906 C 386.324219 337.042969 386.589844 338.847656 386.769531 340.667969 C 386.949219 342.484375 387.039062 344.308594 387.039062 346.132812 Z M 387.039062 346.132812 "/><path style=" stroke:none;fill-rule:nonzero;fill:#1800ad;fill-opacity:1;" d="M 675.21875 346.132812 C 675.21875 347.960938 675.132812 349.785156 674.953125 351.601562 C 674.773438 353.417969 674.503906 355.222656 674.148438 357.015625 C 673.792969 358.808594 673.347656 360.578125 672.820312 362.324219 C 672.289062 364.074219 671.671875 365.792969 670.976562 367.480469 C 670.277344 369.167969 669.496094 370.816406 668.632812 372.425781 C 667.773438 374.039062 666.835938 375.605469 665.820312 377.121094 C 664.804688 378.640625 663.71875 380.105469 662.558594 381.519531 C 661.402344 382.929688 660.175781 384.28125 658.882812 385.574219 C 657.59375 386.867188 656.238281 388.09375 654.828125 389.25 C 653.414062 390.410156 651.949219 391.496094 650.429688 392.511719 C 648.914062 393.527344 647.347656 394.464844 645.738281 395.324219 C 644.125 396.1875 642.476562 396.96875 640.789062 397.664062 C 639.101562 398.363281 637.382812 398.980469 635.632812 399.511719 C 633.886719 400.039062 632.117188 400.484375 630.324219 400.839844 C 628.53125 401.195312 626.726562 401.464844 624.910156 401.644531 C 623.09375 401.820312 621.269531 401.910156 619.441406 401.910156 C 617.617188 401.910156 615.792969 401.820312 613.976562 401.644531 C 612.15625 401.464844 610.351562 401.195312 608.5625 400.839844 C 606.769531 400.484375 605 400.039062 603.25 399.511719 C 601.503906 398.980469 599.785156 398.363281 598.097656 397.664062 C 596.410156 396.96875 594.761719 396.1875 593.148438 395.324219 C 591.539062 394.464844 589.972656 393.527344 588.453125 392.511719 C 586.9375 391.496094 585.46875 390.410156 584.058594 389.25 C 582.644531 388.09375 581.292969 386.867188 580.003906 385.574219 C 578.710938 384.28125 577.484375 382.929688 576.328125 381.519531 C 575.167969 380.105469 574.082031 378.640625 573.066406 377.121094 C 572.050781 375.605469 571.113281 374.039062 570.253906 372.425781 C 569.390625 370.816406 568.609375 369.167969 567.910156 367.480469 C 567.210938 365.792969 566.597656 364.074219 566.066406 362.324219 C 565.539062 360.578125 565.09375 358.808594 564.738281 357.015625 C 564.382812 355.222656 564.113281 353.417969 563.933594 351.601562 C 563.753906 349.785156 563.664062 347.960938 563.664062 346.132812 C 563.664062 344.308594 563.753906 342.484375 563.933594 340.667969 C 564.113281 338.847656 564.382812 337.042969 564.738281 335.253906 C 565.09375 333.460938 565.539062 331.691406 566.066406 329.941406 C 566.597656 328.195312 567.210938 326.476562 567.910156 324.789062 C 568.609375 323.101562 569.390625 321.453125 570.253906 319.839844 C 571.113281 318.230469 572.050781 316.664062 573.066406 315.144531 C 574.082031 313.628906 575.167969 312.160156 576.328125 310.75 C 577.484375 309.335938 578.710938 307.984375 580.003906 306.695312 C 581.292969 305.402344 582.644531 304.175781 584.058594 303.019531 C 585.46875 301.859375 586.9375 300.773438 588.453125 299.757812 C 589.972656 298.742188 591.539062 297.804688 593.148438 296.941406 C 594.761719 296.082031 596.410156 295.300781 598.097656 294.601562 C 599.785156 293.902344 601.503906 293.289062 603.25 292.757812 C 605 292.230469 606.769531 291.785156 608.5625 291.429688 C 610.351562 291.074219 612.15625 290.804688 613.976562 290.625 C 615.792969 290.445312 617.617188 290.355469 619.441406 290.355469 C 621.269531 290.355469 623.09375 290.445312 624.910156 290.625 C 626.726562 290.804688 628.53125 291.074219 630.324219 291.429688 C 632.117188 291.785156 633.886719 292.230469 635.632812 292.757812 C 637.382812 293.289062 639.101562 293.902344 640.789062 294.601562 C 642.476562 295.300781 644.125 296.082031 645.738281 296.941406 C 647.347656 297.804688 648.914062 298.742188 650.429688 299.757812 C 651.949219 300.773438 653.414062 301.859375 654.828125 303.019531 C 656.238281 304.175781 657.59375 305.402344 658.882812 306.695312 C 660.175781 307.984375 661.402344 309.335938 662.558594 310.75 C 663.71875 312.160156 664.804688 313.628906 665.820312 315.144531 C 666.835938 316.664062 667.773438 318.230469 668.632812 319.839844 C 669.496094 321.453125 670.277344 323.101562 670.976562 324.789062 C 671.671875 326.476562 672.289062 328.195312 672.820312 329.941406 C 673.347656 331.691406 673.792969 333.460938 674.148438 335.253906 C 674.503906 337.042969 674.773438 338.847656 674.953125 340.667969 C 675.132812 342.484375 675.21875 344.308594 675.21875 346.132812 Z M 675.21875 346.132812 "/><path style=" stroke:none;fill-rule:nonzero;fill:#1800ad;fill-opacity:1;" d="M 277.34375 729.140625 L 277.34375 738.433594 L 314.527344 738.433594 L 314.527344 729.140625 C 312.667969 636.175781 387.039062 559.949219 480 559.949219 C 524.621094 559.949219 567.382812 576.679688 598.992188 608.289062 C 630.597656 639.894531 649.191406 680.796875 649.191406 725.421875 L 649.191406 734.714844 L 686.375 734.714844 L 686.375 725.421875 C 686.375 671.503906 664.066406 619.441406 625.019531 582.257812 C 585.976562 543.214844 533.917969 524.621094 480 524.621094 C 366.585938 522.761719 275.484375 615.726562 277.34375 729.140625 Z M 665.925781 714.265625 C 664.066406 686.375 656.628906 660.347656 643.613281 638.035156 C 658.488281 662.207031 665.925781 688.234375 665.925781 714.265625 Z M 478.140625 541.355469 C 379.601562 543.214844 297.792969 621.300781 294.074219 719.84375 C 299.652344 621.300781 379.601562 541.355469 478.140625 541.355469 Z M 478.140625 541.355469 "/></g></svg>